<?xml version="1.0" standalone="no"?>
<!DOCTYPE svg PUBLIC "-//W3C//DTD SVG 20010904//EN"
 "http://www.w3.org/TR/2001/REC-SVG-20010904/DTD/svg10.dtd">
<svg version="1.0" xmlns="http://www.w3.org/2000/svg"
 width="512.000000pt" height="512.000000pt" viewBox="0 0 512.000000 512.000000"
 preserveAspectRatio="xMidYMid meet">
<metadata>
Created by potrace 1.14, written by Peter Selinger 2001-2017
</metadata>
<g transform="translate(0.000000,512.000000) scale(0.100000,-0.100000)"
fill="#000000" stroke="none">
<path d="M0 2560 l0 -2560 480 0 c420 0 480 2 480 15 0 8 5 15 11 15 6 0 9 -7
5 -15 -5 -14 191 -15 1799 -15 1510 1 1805 3 1805 14 0 23 29 27 42 6 12 -19
25 -20 255 -20 l243 0 0 1168 c0 828 -3 1171 -11 1179 -8 8 -8 13 0 17 8 5 11
403 11 1382 l0 1374 -695 0 c-445 -1 -695 -5 -695 -11 0 -6 -7 -6 -19 0 -26
14 -1095 15 -1086 1 3 -5 14 -10 23 -10 10 0 12 -3 6 -9 -15 -14 -76 -1 -70
15 4 11 -9 14 -65 14 -44 0 -68 -4 -64 -10 3 -5 -1 -10 -10 -10 -9 0 -14 4
-11 9 10 15 -259 8 -277 -8 -15 -12 -17 -11 -17 2 0 15 -69 16 -711 17 -516 0
-715 -3 -725 -11 -10 -8 -18 -8 -27 0 -9 7 -119 11 -345 11 l-332 0 0 -2560z
m1240 2540 c0 -5 -4 -10 -10 -10 -5 0 -10 5 -10 10 0 6 5 10 10 10 6 0 10 -4
10 -10z m1330 0 c0 -6 -18 -10 -40 -10 -22 0 -40 4 -40 8 0 5 18 9 40 10 22 1
40 -3 40 -8z m1225 0 c-3 -5 -10 -10 -16 -10 -5 0 -9 5 -9 10 0 6 7 10 16 10
8 0 12 -4 9 -10z m-3325 -10 c0 -5 -4 -10 -9 -10 -6 0 -13 5 -16 10 -3 6 1 10
9 10 9 0 16 -4 16 -10z m3500 0 c0 -5 -7 -7 -15 -4 -8 4 -15 8 -15 10 0 2 7 4
15 4 8 0 15 -4 15 -10z m-1260 -10 c0 -5 -9 -10 -20 -10 -11 0 -20 5 -20 10 0
6 9 10 20 10 11 0 20 -4 20 -10z m-374 -37 c-10 -10 -19 5 -10 18 6 11 8 11
12 0 2 -7 1 -15 -2 -18z m-1471 -2 c18 -11 16 -12 -17 -7 -22 3 -43 -1 -55 -9
-30 -23 -38 -17 -12 9 26 26 52 28 84 7z m1705 9 c0 -5 -4 -10 -10 -10 -5 0
-10 5 -10 10 0 6 5 10 10 10 6 0 10 -4 10 -10z m40 -5 c-7 -8 -17 -15 -22 -15
-6 0 -5 7 2 15 7 8 17 15 22 15 6 0 5 -7 -2 -15z m430 11 c0 -3 -4 -8 -10 -11
-5 -3 -10 -1 -10 4 0 6 5 11 10 11 6 0 10 -2 10 -4z m360 -6 c0 -5 -2 -10 -4
-10 -3 0 -8 5 -11 10 -3 6 -1 10 4 10 6 0 11 -4 11 -10z m860 0 c0 -5 -4 -10
-10 -10 -5 0 -10 5 -10 10 0 6 5 10 10 10 6 0 10 -4 10 -10z m790 -5 c0 -8 -4
-15 -10 -15 -5 0 -10 7 -10 15 0 8 5 15 10 15 6 0 10 -7 10 -15z m-4940 -16
c0 -6 -4 -7 -10 -4 -5 3 -10 11 -10 16 0 6 5 7 10 4 6 -3 10 -11 10 -16z
m1760 6 c0 -8 -4 -15 -10 -15 -5 0 -10 7 -10 15 0 8 5 15 10 15 6 0 10 -7 10
-15z m1750 5 c0 -5 -4 -10 -10 -10 -5 0 -10 5 -10 10 0 6 5 10 10 10 6 0 10
-4 10 -10z m57 4 c-3 -3 -12 -4 -19 -1 -8 3 -5 6 6 6 11 1 17 -2 13 -5z m958
-4 c-3 -5 -10 -10 -16 -10 -5 0 -9 5 -9 10 0 6 7 10 16 10 8 0 12 -4 9 -10z
m165 -11 c0 -5 -7 -9 -15 -9 -15 0 -20 12 -9 23 8 8 24 -1 24 -14z m-1280 1
c0 -5 -4 -10 -10 -10 -5 0 -10 5 -10 10 0 6 5 10 10 10 6 0 10 -4 10 -10z
m-3370 -10 c0 -5 -2 -10 -4 -10 -3 0 -8 5 -11 10 -3 6 -1 10 4 10 6 0 11 -4
11 -10z m795 0 c3 -5 1 -10 -4 -10 -6 0 -11 5 -11 10 0 6 2 10 4 10 3 0 8 -4
11 -10z m815 0 c0 -5 -4 -10 -9 -10 -6 0 -13 5 -16 10 -3 6 1 10 9 10 9 0 16
-4 16 -10z m2130 -5 c10 -12 10 -15 -4 -15 -9 0 -16 7 -16 15 0 8 2 15 4 15 2
0 9 -7 16 -15z m178 8 c-10 -2 -26 -2 -35 0 -10 3 -2 5 17 5 19 0 27 -2 18 -5z
m-318 -23 c-8 -5 -17 -7 -19 -4 -3 3 1 9 9 14 8 5 17 7 19 4 3 -3 -1 -9 -9
-14z m67 4 c-3 -3 -12 -4 -19 -1 -8 3 -5 6 6 6 11 1 17 -2 13 -5z m343 -15 c0
-5 -7 -9 -15 -9 -8 0 -15 7 -15 15 0 9 6 12 15 9 8 -4 15 -10 15 -15z m895 11
c3 -5 -3 -10 -15 -10 -12 0 -18 5 -15 10 3 6 10 10 15 10 5 0 12 -4 15 -10z
m-1355 -10 c0 -5 -4 -10 -10 -10 -5 0 -7 -8 -3 -17 5 -14 3 -16 -7 -6 -7 6
-10 19 -7 27 7 18 27 22 27 6z m-1225 -10 c-3 -5 -10 -10 -16 -10 -5 0 -9 5
-9 10 0 6 7 10 16 10 8 0 12 -4 9 -10z m1173 -1 c-2 -6 -8 -10 -13 -10 -5 0
-11 4 -13 10 -2 6 4 11 13 11 9 0 15 -5 13 -11z m-3088 -19 c-24 -15 -37 -11
-16 5 11 8 22 12 25 9 3 -3 -1 -9 -9 -14z m4478 -3 c5 -24 -15 -21 -21 4 -3
13 -1 19 6 16 7 -2 13 -11 15 -20z m42 3 c0 -11 -7 -20 -15 -20 -15 0 -21 21
-8 33 12 13 23 7 23 -13z m-4593 -6 c2 -7 -6 -10 -19 -9 -30 3 -30 3 -23 16 8
13 37 8 42 -7z m1353 6 c0 -5 -2 -10 -4 -10 -3 0 -8 5 -11 10 -3 6 -1 10 4 10
6 0 11 -4 11 -10z m1370 0 c0 -5 -4 -10 -10 -10 -5 0 -10 5 -10 10 0 6 5 10
10 10 6 0 10 -4 10 -10z m1800 -10 c0 -5 -7 -7 -15 -4 -8 4 -12 10 -9 15 6 11
24 2 24 -11z m-940 -21 c0 -5 -4 -9 -10 -9 -5 0 -10 7 -10 16 0 8 5 12 10 9 6
-3 10 -10 10 -16z m-3670 7 c0 -3 -4 -8 -10 -11 -5 -3 -10 -1 -10 4 0 6 5 11
10 11 6 0 10 -2 10 -4z m1770 -6 c0 -5 -4 -10 -9 -10 -6 0 -13 5 -16 10 -3 6
1 10 9 10 9 0 16 -4 16 -10z m2878 -12 c17 -17 15 -29 -3 -22 -20 8 -19 -6 3
-22 14 -11 15 -13 2 -14 -23 0 -40 20 -40 47 0 25 19 30 38 11z m-4693 -8 c3
-5 -1 -10 -10 -10 -9 0 -13 5 -10 10 3 6 8 10 10 10 2 0 7 -4 10 -10z m1985 0
c0 -5 -4 -10 -10 -10 -5 0 -10 5 -10 10 0 6 5 10 10 10 6 0 10 -4 10 -10z m66
-5 c-8 -8 -17 -15 -20 -15 -3 0 -3 7 0 15 4 8 13 15 21 15 12 0 12 -2 -1 -15z
m-186 -10 c0 -8 -4 -15 -9 -15 -13 0 -22 16 -14 24 11 11 23 6 23 -9z m1620
-1 c0 -8 -5 -12 -10 -9 -6 4 -8 11 -5 16 9 14 15 11 15 -7z m690 6 c0 -5 -2
-10 -4 -10 -3 0 -8 5 -11 10 -3 6 -1 10 4 10 6 0 11 -4 11 -10z m-4280 -16 c0
-8 -4 -12 -10 -9 -5 3 -10 10 -10 16 0 5 5 9 10 9 6 0 10 -7 10 -16z m4080 -5
c0 -5 -4 -9 -10 -9 -5 0 -10 7 -10 16 0 8 5 12 10 9 6 -3 10 -10 10 -16z
m-920 1 c0 -5 -4 -10 -10 -10 -5 0 -10 5 -10 10 0 6 5 10 10 10 6 0 10 -4 10
-10z m-1140 -10 c0 -5 -2 -10 -4 -10 -3 0 -8 5 -11 10 -3 6 -1 10 4 10 6 0 11
-4 11 -10z m220 -5 c0 -8 -4 -15 -10 -15 -5 0 -10 7 -10 15 0 8 5 15 10 15 6
0 10 -7 10 -15z m520 -5 c0 -5 -4 -10 -10 -10 -5 0 -10 5 -10 10 0 6 5 10 10
10 6 0 10 -4 10 -10z m688 -2 c-6 -18 -28 -21 -28 -4 0 9 7 16 16 16 9 0 14
-5 12 -12z m186 3 c6 -10 -22 -37 -29 -29 -8 7 5 38 15 38 5 0 11 -4 14 -9z
m-1864 -16 c0 -9 -6 -12 -15 -9 -8 4 -12 10 -9 15 8 14 24 10 24 -6z m820 3
c0 -7 -5 -20 -10 -28 -12 -19 -35 2 -27 24 7 19 37 21 37 4z m700 -3 c-7 -9
-15 -13 -17 -11 -7 7 7 26 19 26 6 0 6 -6 -2 -15z m120 7 c0 -5 -12 -14 -27
-21 -28 -13 -28 -13 -9 8 20 22 36 27 36 13z m628 -26 c-2 -13 -12 -22 -26
-24 -29 -4 -42 26 -18 44 24 17 48 6 44 -20z m102 19 c-7 -9 -15 -13 -17 -11
-7 7 7 26 19 26 6 0 6 -6 -2 -15z m-890 -5 c0 -5 -7 -10 -15 -10 -8 0 -15 5
-15 10 0 6 7 10 15 10 8 0 15 -4 15 -10z m320 1 c0 -5 -13 -16 -30 -25 -34
-16 -38 -11 -13 16 17 19 43 24 43 9z m1253 -3 c2 -7 -3 -18 -12 -25 -15 -11
-15 -12 0 -13 17 0 34 -50 18 -50 -5 0 -9 6 -9 13 0 8 -4 7 -11 -3 -8 -12 -9
-10 -4 7 4 16 0 25 -14 33 -18 9 -19 14 -8 30 13 23 33 26 40 8z m-1662 -31
c-16 -16 -26 0 -10 19 9 11 15 12 17 4 2 -6 -1 -17 -7 -23z m809 13 c0 -13 -5
-18 -15 -14 -16 7 -19 17 -8 27 12 13 23 7 23 -13z m-3690 0 c0 -5 -4 -10 -10
-10 -5 0 -10 5 -10 10 0 6 5 10 10 10 6 0 10 -4 10 -10z m3470 -11 c0 -5 -4
-9 -10 -9 -5 0 -10 7 -10 16 0 8 5 12 10 9 6 -3 10 -10 10 -16z m-3640 -14 c0
-8 -4 -15 -9 -15 -13 0 -22 16 -14 24 11 11 23 6 23 -9z m1900 1 c0 -16 -18
-31 -27 -22 -8 8 5 36 17 36 5 0 10 -6 10 -14z m260 4 c0 -5 -4 -10 -10 -10
-5 0 -10 5 -10 10 0 6 5 10 10 10 6 0 10 -4 10 -10z m-1810 -25 c0 -16 -27
-32 -37 -21 -7 7 16 36 28 36 5 0 9 -7 9 -15z m315 -19 c55 -25 162 -133 189
-191 84 -177 -3 -411 -189 -505 -62 -32 -68 -33 -154 -28 -72 4 -98 10 -141
34 -97 53 -179 170 -200 287 -28 152 82 335 242 400 85 35 182 36 253 3z
m2285 14 c12 -8 11 -10 -7 -10 -13 0 -23 5 -23 10 0 13 11 13 30 0z m376 -17
c-10 -10 -19 5 -10 18 6 11 8 11 12 0 2 -7 1 -15 -2 -18z m-2596 1 c0 -8 -4
-12 -10 -9 -5 3 -10 10 -10 16 0 5 5 9 10 9 6 0 10 -7 10 -16z m308 -7 c2 -10
-3 -17 -12 -17 -10 0 -16 9 -16 21 0 24 23 21 28 -4z m2117 14 c-3 -5 5 -17
17 -25 22 -16 22 -16 -10 -16 -17 0 -32 5 -32 10 0 6 4 10 10 10 5 0 7 7 4 15
-4 8 -1 15 6 15 6 0 9 -4 5 -9z m-309 -38 c-11 -11 -19 6 -11 24 8 17 8 17 12
0 3 -10 2 -21 -1 -24z m892 15 c-6 -18 -25 -21 -25 -3 0 8 7 15 15 15 7 0 12
-5 10 -12z m-848 -14 c0 -8 -4 -12 -10 -9 -5 3 -10 10 -10 16 0 5 5 9 10 9 6
0 10 -7 10 -16z m913 -15 c-5 -5 -17 -3 -29 6 -14 11 -15 14 -3 9 10 -3 21 0
25 7 6 11 8 11 12 0 2 -7 0 -17 -5 -22z m917 15 c0 -8 -5 -12 -10 -9 -6 4 -8
11 -5 16 9 14 15 11 15 -7z m-3740 -4 c0 -5 -5 -10 -11 -10 -5 0 -7 5 -4 10 3
6 8 10 11 10 2 0 4 -4 4 -10z m270 -5 c0 -8 -4 -15 -9 -15 -13 0 -22 16 -14
24 11 11 23 6 23 -9z m1530 11 c0 -3 -4 -8 -10 -11 -5 -3 -10 -1 -10 4 0 6 5
11 10 11 6 0 10 -2 10 -4z m230 -22 c0 -16 -16 -19 -25 -4 -8 13 4 32 16 25 5
-4 9 -13 9 -21z m415 -4 c-5 -8 -11 -8 -17 -2 -6 6 -7 16 -3 22 5 8 11 8 17 2
6 -6 7 -16 3 -22z m268 8 c-6 -24 -43 -66 -43 -49 0 5 5 13 10 16 6 3 10 15
10 25 0 10 6 21 13 23 6 3 13 6 14 6 0 1 -1 -9 -4 -21z m-1229 -47 c-7 -7 -34
21 -34 36 0 10 6 8 19 -8 11 -13 18 -26 15 -28z m1472 -34 c38 -64 62 -75 146
-60 35 6 66 7 71 4 8 -8 -85 -91 -102 -91 -25 0 -20 -42 13 -107 69 -134 56
-159 -34 -68 -67 67 -87 70 -132 14 -63 -79 -100 -115 -94 -94 3 11 8 53 12
92 8 84 4 91 -67 130 -27 14 -49 30 -49 35 0 4 20 8 44 8 62 0 104 10 110 26
3 8 8 55 12 105 8 103 12 103 70 6z m669 63 c3 -5 -1 -10 -9 -10 -9 0 -16 5
-16 10 0 6 4 10 9 10 6 0 13 -4 16 -10z m-2075 -9 c0 -6 -4 -13 -10 -16 -5 -3
-10 1 -10 9 0 9 5 16 10 16 6 0 10 -4 10 -9z m2157 -21 c-1 -16 -5 -30 -8 -30
-9 0 -19 42 -13 52 11 18 23 6 21 -22z m-3248 -7 c2 -1 -6 -1 -18 0 -11 1 -21
8 -21 15 0 12 3 12 18 1 9 -7 19 -14 21 -16z m1401 2 c-7 -9 -15 -13 -18 -10
-3 2 1 11 8 20 7 9 15 13 18 10 3 -2 -1 -11 -8 -20z m350 15 c0 -5 -4 -10 -10
-10 -5 0 -10 5 -10 10 0 6 5 10 10 10 6 0 10 -4 10 -10z m-1340 -10 c0 -5 -4
-10 -10 -10 -5 0 -10 5 -10 10 0 6 5 10 10 10 6 0 10 -4 10 -10z m-70 -10 c0
-5 -4 -10 -9 -10 -6 0 -13 5 -16 10 -3 6 1 10 9 10 9 0 16 -4 16 -10z m1015 1
c-3 -6 2 -14 11 -19 12 -7 13 -11 4 -17 -16 -10 -34 10 -27 29 4 9 9 16 12 16
4 0 4 -4 0 -9z m1300 -11 c3 -5 1 -10 -4 -10 -6 0 -11 5 -11 10 0 6 2 10 4 10
3 0 8 -4 11 -10z m-3190 -10 c3 -5 1 -10 -4 -10 -6 0 -11 5 -11 10 0 6 2 10 4
10 3 0 8 -4 11 -10z m790 -10 c0 -8 -8 -16 -17 -18 -13 -2 -18 3 -18 18 0 15
5 20 18 18 9 -2 17 -10 17 -18z m2949 -9 c10 -11 16 -24 15 -29 -2 -5 -14 4
-27 20 -26 31 -15 39 12 9z m-2848 -29 c-16 -16 -17 -16 -10 1 4 11 1 17 -7
18 -8 0 -5 4 6 8 26 11 32 -6 11 -27z m65 25 c-1 -12 -15 -9 -19 4 -3 6 1 10
8 8 6 -3 11 -8 11 -12z m1650 -17 c5 0 9 5 9 11 0 5 5 7 11 3 20 -12 -15 -24
-47 -15 -27 7 -28 8 -9 19 16 8 21 8 23 -4 2 -8 8 -14 13 -14z m-386 10 c3 -5
1 -10 -4 -10 -6 0 -11 5 -11 10 0 6 2 10 4 10 3 0 8 -4 11 -10z m1370 -20 c-5
-8 -11 -8 -17 -2 -6 6 -7 16 -3 22 5 8 11 8 17 2 6 -6 7 -16 3 -22z m-3225 10
c0 -5 -5 -10 -11 -10 -5 0 -7 5 -4 10 3 6 8 10 11 10 2 0 4 -4 4 -10z m467 -7
c-9 -9 -19 -14 -23 -11 -10 10 6 28 24 28 15 0 15 -1 -1 -17z m-112 -3 c3 -5
1 -10 -4 -10 -6 0 -11 5 -11 10 0 6 2 10 4 10 3 0 8 -4 11 -10z m1725 0 c0 -5
-2 -10 -4 -10 -3 0 -8 5 -11 10 -3 6 -1 10 4 10 6 0 11 -4 11 -10z m1256 -12
c-1 -23 -26 -39 -26 -16 0 11 18 38 26 38 1 0 1 -10 0 -22z m-1501 2 c-3 -5
-11 -10 -16 -10 -6 0 -7 5 -4 10 3 6 11 10 16 10 6 0 7 -4 4 -10z m1125 0 c0
-5 -5 -10 -11 -10 -5 0 -7 5 -4 10 3 6 8 10 11 10 2 0 4 -4 4 -10z m330 -5
c-7 -8 -17 -12 -22 -9 -6 4 -5 10 3 15 22 14 33 10 19 -6z m-363 -20 c-4 -8
-11 -15 -17 -15 -7 0 -7 6 0 21 13 23 26 19 17 -6z m453 0 c7 -14 10 -28 7
-32 -8 -8 -36 26 -37 45 0 20 16 14 30 -13z m-3415 5 c3 -5 1 -10 -4 -10 -6 0
-11 5 -11 10 0 6 2 10 4 10 3 0 8 -4 11 -10z m45 -11 c0 -6 -4 -7 -10 -4 -5 3
-10 11 -10 16 0 6 5 7 10 4 6 -3 10 -11 10 -16z m1513 6 c-3 -9 -8 -14 -10
-11 -3 3 -2 9 2 15 9 16 15 13 8 -4z m397 6 c0 -6 -4 -13 -10 -16 -5 -3 -10 1
-10 9 0 9 5 16 10 16 6 0 10 -4 10 -9z m340 -12 c0 -5 -4 -9 -10 -9 -5 0 -10
7 -10 16 0 8 5 12 10 9 6 -3 10 -10 10 -16z m860 12 c0 -5 -9 -11 -21 -14 -16
-4 -18 -3 -8 9 13 16 29 19 29 5z m-1810 -22 c0 -6 -4 -7 -10 -4 -5 3 -10 11
-10 16 0 6 5 7 10 4 6 -3 10 -11 10 -16z m-1515 -19 c3 -5 -3 -10 -14 -10 -12
0 -21 5 -21 10 0 6 6 10 14 10 8 0 18 -4 21 -10z m2150 0 c3 -5 -1 -10 -9 -10
-9 0 -16 5 -16 10 0 6 4 10 9 10 6 0 13 -4 16 -10z m-2098 -9 c12 10 16 10 24
-2 8 -12 10 -12 19 1 8 13 11 13 19 1 5 -7 13 -11 19 -7 6 3 13 2 16 -3 3 -5
-1 -12 -10 -15 -15 -6 -15 -8 1 -26 16 -18 16 -20 2 -20 -9 0 -19 11 -23 25
-6 24 -24 35 -24 15 0 -5 -4 -10 -10 -10 -5 0 -10 7 -10 15 0 18 -16 20 -26 4
-7 -12 -24 7 -23 26 0 6 3 4 6 -3 4 -10 8 -10 20 -1z m163 -1 c0 -13 -11 -13
-30 0 -12 8 -11 10 8 10 12 0 22 -4 22 -10z m3300 -14 c0 -8 -7 -19 -15 -26
-13 -10 -15 -9 -15 12 0 14 3 28 6 31 9 9 24 -2 24 -17z m-1454 -24 c-10 -10
-29 15 -21 28 6 9 10 8 17 -4 6 -10 7 -20 4 -24z m-1576 18 c0 -5 -4 -10 -10
-10 -5 0 -10 5 -10 10 0 6 5 10 10 10 6 0 10 -4 10 -10z m1948 -3 c-7 -7 -24
-13 -37 -14 -40 -3 -4 19 42 26 5 0 2 -5 -5 -12z m624 -9 c-7 -7 -12 -8 -12
-2 0 6 3 14 7 17 3 4 9 5 12 2 2 -3 -1 -11 -7 -17z m153 12 c3 -5 1 -10 -4
-10 -6 0 -11 5 -11 10 0 6 2 10 4 10 3 0 8 -4 11 -10z m-3208 -18 c-10 -10
-14 -22 -10 -25 3 -4 1 -7 -5 -7 -13 0 -16 32 -5 43 3 4 13 7 21 7 13 0 13 -3
-1 -18z m2139 -12 c-1 -16 -4 -30 -8 -30 -10 0 -10 22 -2 44 9 23 11 20 10
-14z m157 -10 c6 -23 -14 -27 -32 -7 -8 10 -7 17 1 25 14 14 24 8 31 -18z
m-2358 4 c17 -12 18 -16 6 -24 -10 -6 -19 -3 -28 8 -25 33 -12 42 22 16z m265
-4 c0 -5 -2 -10 -4 -10 -3 0 -8 5 -11 10 -3 6 -1 10 4 10 6 0 11 -4 11 -10z
m450 1 c0 -6 -4 -13 -10 -16 -5 -3 -10 1 -10 9 0 9 5 16 10 16 6 0 10 -4 10
-9z m1740 0 c0 -17 -12 -41 -21 -41 -10 0 -12 33 -2 43 9 10 23 9 23 -2z
m-3340 -11 c0 -5 -2 -10 -4 -10 -3 0 -8 5 -11 10 -3 6 -1 10 4 10 6 0 11 -4
11 -10z m1200 0 c0 -5 -7 -10 -15 -10 -8 0 -15 5 -15 10 0 6 7 10 15 10 8 0
15 -4 15 -10z m2410 -15 c13 -14 19 -25 14 -25 -11 1 -54 36 -54 44 0 13 18 5
40 -19z m717 -1 c-9 -9 -28 6 -21 18 4 6 10 6 17 -1 6 -6 8 -13 4 -17z m-3203
-15 c-3 -5 -10 -7 -15 -3 -5 3 -7 10 -3 15 3 5 10 7 15 3 5 -3 7 -10 3 -15z
m1826 -5 c0 -8 -4 -12 -10 -9 -5 3 -10 10 -10 16 0 5 5 9 10 9 6 0 10 -7 10
-16z m-2120 -9 c-7 -9 -15 -13 -17 -11 -7 7 7 26 19 26 6 0 6 -6 -2 -15z
m2550 0 c0 -8 -9 -15 -20 -15 -11 0 -20 5 -20 11 0 6 7 8 16 5 8 -3 12 -2 9 4
-3 6 -1 10 4 10 6 0 11 -7 11 -15z m-80 -5 c0 -5 -7 -10 -15 -10 -8 0 -15 5
-15 10 0 6 7 10 15 10 8 0 15 -4 15 -10z m1219 -19 c-3 -6 -10 -7 -18 -2 -7 5
-10 14 -6 21 9 14 29 -2 24 -19z m-3275 -33 c-5 -8 -10 -6 -15 8 -14 35 -10
50 7 26 8 -12 12 -27 8 -34z m632 44 c-2 -4 82 -7 187 -7 175 0 204 -3 322
-29 72 -16 168 -42 215 -58 137 -48 327 -150 436 -231 263 -199 288 -222 264
-238 -9 -6 -34 -6 -60 -2 -66 12 -197 5 -260 -13 -30 -9 -69 -17 -87 -19 -18
-2 -53 -15 -78 -30 -55 -32 -175 -77 -175 -65 0 5 6 10 13 13 6 2 9 7 6 11 -4
4 -16 -3 -28 -15 -13 -14 -21 -17 -21 -10 0 10 -3 11 -14 2 -11 -9 -15 -9 -19
1 -4 8 -6 7 -6 -4 -1 -10 -8 -18 -16 -18 -8 0 -20 -10 -26 -22 -12 -22 -12
-22 -20 -3 -4 11 -8 14 -8 8 -1 -18 -21 -16 -21 1 0 37 -20 20 -39 -34 -25
-69 -54 -90 -123 -90 -41 0 -44 -2 -60 -42 -17 -40 -17 -41 1 -24 19 17 19 17
16 -21 -1 -21 -15 -60 -30 -88 -18 -34 -25 -59 -21 -77 3 -15 1 -30 -4 -33 -6
-3 -10 -25 -10 -48 0 -24 -6 -67 -13 -97 -8 -30 -15 -93 -16 -139 -1 -68 1
-82 13 -78 10 4 15 -8 18 -51 3 -36 16 -80 36 -120 24 -50 28 -62 14 -57 -13
5 -12 1 4 -17 38 -41 76 -107 69 -118 -4 -6 -1 -17 5 -25 6 -8 9 -18 6 -24 -4
-5 0 -29 8 -53 23 -70 27 -98 16 -98 -5 0 -10 -16 -10 -35 0 -34 1 -35 40 -35
67 0 138 -37 162 -85 9 -16 5 -15 -18 6 -16 15 -38 31 -50 37 -19 10 -21 9
-16 -13 5 -28 -13 -55 -36 -55 -13 0 -13 3 2 19 10 11 16 30 14 43 -2 19 -10
23 -44 26 -38 3 -43 1 -52 -27 -12 -35 -8 -41 30 -41 15 0 28 -5 28 -11 0 -5
-4 -8 -9 -4 -13 8 -62 -16 -55 -27 3 -5 23 -7 43 -3 28 5 41 2 51 -9 10 -13
10 -16 -3 -16 -25 0 -27 -28 -6 -67 l21 -38 -37 40 c-22 24 -33 31 -26 17 7
-13 11 -28 8 -35 -2 -7 -9 -2 -16 11 -6 12 -16 22 -21 22 -16 0 -11 -33 10
-65 30 -45 24 -55 -9 -16 l-28 34 -38 -28 c-34 -27 -36 -32 -31 -67 7 -41 -8
-53 -18 -15 -4 17 -8 19 -15 9 -4 -8 -12 -13 -17 -13 -5 1 -10 -11 -12 -25 -3
-19 -6 -24 -12 -14 -7 11 -11 10 -24 -2 -8 -9 -12 -19 -8 -23 4 -3 -1 -11 -11
-16 -11 -7 -17 -22 -17 -44 0 -47 -18 -45 -22 3 l-4 37 -17 -39 c-15 -32 -22
-37 -40 -32 -12 4 -57 8 -100 10 -76 3 -78 3 -73 -18 3 -11 6 -29 6 -39 0 -10
5 -15 10 -12 6 3 10 16 10 28 0 18 2 19 10 7 5 -8 10 -28 10 -44 0 -21 4 -27
15 -22 10 3 15 -1 16 -12 0 -12 3 -11 10 6 12 30 29 19 29 -18 0 -18 11 -42
30 -63 22 -26 30 -45 30 -72 0 -53 11 -37 27 38 l13 62 -4 -70 -4 -70 20 59
c11 33 33 76 49 95 16 20 29 47 30 61 0 23 1 23 9 5 12 -28 12 -89 0 -121 -15
-39 -3 -43 14 -4 8 21 15 28 19 19 4 -10 10 -8 23 10 10 14 26 33 36 43 10 10
18 24 19 31 0 8 2 8 5 1 8 -20 52 -3 58 22 4 13 13 24 21 24 8 0 15 4 15 9 0
16 31 83 36 78 3 -3 -1 -28 -10 -56 -8 -29 -11 -49 -6 -46 5 3 14 20 20 38 8
27 9 24 5 -23 -4 -36 -2 -50 4 -41 9 14 24 -67 25 -136 0 -17 4 -29 8 -27 4 3
8 11 8 18 0 8 16 27 36 44 20 18 47 53 60 79 20 43 23 45 23 21 2 -50 19 -29
32 38 8 42 15 59 19 48 6 -16 7 -16 13 -1 3 9 4 23 1 31 -3 8 -1 17 5 21 7 4
11 -3 11 -17 0 -13 5 -30 10 -38 8 -12 10 -9 10 13 0 15 5 27 10 27 6 0 10 10
10 22 0 21 0 21 15 2 14 -18 14 -18 15 9 0 15 5 27 10 27 6 0 10 -6 10 -14 0
-8 5 -27 12 -43 6 -15 10 -37 9 -48 -3 -19 -2 -19 11 -1 13 16 15 13 24 -38 9
-44 8 -59 -3 -67 -10 -9 -13 -8 -13 2 -1 25 -29 -36 -30 -63 0 -15 -4 -29 -9
-32 -5 -3 -7 -15 -4 -26 4 -14 0 -20 -10 -20 -9 0 -17 8 -20 17 -3 13 -6 9
-11 -12 -14 -56 -70 -189 -86 -205 -10 -10 -29 -50 -43 -91 -14 -41 -26 -69
-27 -64 -1 15 -16 -14 -39 -75 -17 -44 -18 -51 -5 -35 l17 20 -8 -20 c-18 -49
-14 -57 9 -20 14 22 26 43 26 48 0 4 4 7 10 7 5 0 3 -18 -5 -40 -8 -23 -11
-39 -6 -36 4 3 18 32 30 65 29 80 41 84 35 14 l-4 -58 17 57 c21 65 38 89 29
38 -7 -34 -6 -34 15 10 19 40 22 43 29 25 8 -18 9 -17 8 5 0 14 7 39 16 55 9
17 16 36 16 43 0 7 5 10 11 6 7 -4 9 -24 6 -53 l-5 -46 16 50 c9 28 20 52 24
53 5 2 8 15 8 28 0 13 5 24 11 24 6 0 8 -7 4 -17 -4 -12 -3 -15 4 -8 12 12 18
298 8 370 -4 28 -12 67 -18 88 -5 20 -7 41 -4 46 3 5 0 11 -7 13 -7 3 -14 44
-18 114 -4 60 -10 118 -14 129 -6 16 -4 15 15 -5 l22 -25 -7 40 c-6 37 -5 39
9 21 24 -32 17 1 -10 44 -28 44 -24 53 6 18 17 -21 18 -21 12 -3 -3 11 -15 34
-26 50 l-20 30 31 -29 c18 -16 34 -28 36 -25 2 2 -7 26 -20 53 -29 61 -30 70
-3 56 20 -11 20 -11 4 14 -14 20 -15 29 -6 40 8 10 9 16 1 21 -5 3 -10 1 -10
-4 0 -6 -4 -11 -10 -11 -5 0 -10 9 -10 20 0 13 5 18 15 14 8 -4 15 -2 15 4 0
5 -7 15 -15 22 -17 14 -21 45 -5 35 14 -8 12 17 -5 100 -18 85 -19 107 -5 85
5 -8 10 -12 10 -7 0 4 -6 16 -12 27 -10 15 -10 22 0 32 9 9 12 7 13 -13 1 -21
2 -20 10 9 5 17 14 32 20 32 7 0 8 10 4 28 -10 32 -13 102 -5 102 7 0 30 51
30 68 0 11 3 12 13 3 11 -8 13 -5 9 19 -4 29 15 60 37 60 6 0 8 6 5 14 -3 8
-1 17 5 20 6 4 7 14 4 24 -6 15 -5 15 11 3 15 -13 19 -11 34 10 9 13 17 31 18
39 1 8 4 23 9 32 4 11 -1 31 -14 54 -12 20 -19 39 -16 43 10 9 44 -40 62 -91
10 -27 23 -48 30 -48 7 0 13 -7 13 -16 0 -8 5 -12 11 -8 6 3 9 15 6 25 -3 10
-1 22 4 25 12 7 11 61 -1 104 -8 28 -7 36 7 44 14 8 12 13 -18 38 -39 34 -12
30 31 -5 31 -24 35 -31 45 -92 12 -69 29 -14 22 71 -6 80 4 95 27 42 l14 -33
1 32 c1 37 10 63 21 63 4 0 17 -19 29 -42 12 -24 21 -37 21 -31 0 7 -10 32
-21 57 -25 50 -20 88 8 65 9 -8 22 -29 30 -46 18 -44 23 -42 12 5 -11 49 -11
112 0 112 5 0 23 -16 41 -36 42 -48 47 -39 10 20 -34 53 -31 70 11 64 38 -6
37 5 -3 36 -37 29 -31 35 7 10 24 -16 35 -8 15 12 -6 6 -6 15 0 24 8 13 10 12
10 -3 0 -10 12 -22 26 -27 24 -10 63 -47 64 -61 0 -4 18 -37 40 -73 22 -36 47
-85 56 -108 9 -24 22 -56 29 -73 22 -50 76 -254 92 -345 33 -197 27 -520 -13
-720 -46 -225 -198 -546 -341 -719 -121 -146 -330 -334 -469 -424 -118 -75
-386 -206 -477 -232 -400 -116 -792 -88 -1097 78 -111 60 -327 205 -355 238
-13 16 -28 29 -33 29 -19 0 -219 218 -284 310 -131 184 -260 486 -307 718 -25
126 -45 370 -38 458 31 379 141 728 296 941 l30 42 68 -3 c37 -2 55 -2 38 0
-61 8 -122 29 -178 61 -33 18 -63 30 -68 27 -5 -3 -9 -1 -9 4 0 12 71 86 104
107 33 22 33 8 1 -35 -23 -31 -25 -58 -3 -44 6 4 14 0 19 -7 7 -11 9 -9 9 6 1
20 1 20 12 1 8 -15 8 -21 0 -24 -7 -2 -12 -8 -12 -14 0 -5 9 -6 20 -3 12 4 20
2 20 -6 0 -8 5 -8 17 2 15 12 16 12 10 -5 -7 -18 -6 -18 20 -1 l28 18 -25 -27
-25 -28 28 13 c15 7 27 16 27 21 0 4 5 8 10 8 7 0 7 -7 0 -21 -13 -22 -4 -42
9 -21 4 7 15 10 23 7 9 -4 19 -2 23 4 3 6 14 11 23 11 12 0 13 -3 4 -12 -19
-19 -14 -33 6 -16 9 8 29 19 45 26 22 9 27 9 27 -3 0 -7 -4 -17 -10 -20 -5 -3
-10 -14 -10 -25 0 -14 7 -18 32 -16 31 1 33 -1 39 -42 8 -62 22 -71 61 -42
l33 23 -21 -24 c-13 -14 -23 -42 -26 -67 -4 -43 -3 -44 24 -38 l28 5 -15 -37
c-20 -52 -68 -259 -63 -274 2 -6 14 12 26 40 16 37 36 62 70 87 26 19 53 33
60 30 6 -2 12 -1 12 4 0 11 100 64 107 57 3 -3 -11 -24 -31 -46 -20 -22 -36
-46 -36 -53 0 -7 -12 -30 -26 -51 l-27 -39 34 25 c40 30 75 43 83 30 3 -5 -12
-30 -34 -55 -41 -46 -57 -85 -22 -54 30 28 47 14 19 -15 -18 -18 -89 -140 -84
-144 2 -2 22 12 45 32 36 31 42 33 42 16 0 -11 -7 -25 -15 -32 -9 -7 -13 -15
-10 -18 3 -3 14 3 25 13 29 26 25 3 -5 -25 -14 -13 -25 -28 -25 -33 0 -5 19
11 41 37 23 26 43 45 46 43 2 -3 -12 -30 -31 -60 -19 -30 -33 -57 -30 -60 3
-3 0 -8 -7 -13 -8 -5 -10 -3 -4 7 5 8 -14 -10 -41 -40 -55 -60 -89 -111 -74
-111 10 0 115 86 143 118 17 19 20 19 38 4 12 -11 15 -20 9 -26 -16 -16 -12
-26 8 -19 15 6 15 4 -2 -15 -12 -14 -17 -30 -13 -48 5 -28 -24 -85 -57 -113
-9 -7 -16 -18 -16 -24 0 -5 9 -2 20 8 24 22 30 17 35 -24 5 -39 -26 -77 -105
-131 -79 -54 -117 -115 -68 -108 20 3 23 -2 23 -29 0 -18 -2 -33 -5 -33 -10 0
-26 -90 -17 -93 5 -1 2 -17 -7 -34 -20 -40 -20 -49 -1 -33 8 7 15 8 15 2 0 -5
-7 -15 -15 -22 -9 -7 -14 -19 -11 -26 3 -7 -2 -18 -10 -25 -8 -6 -12 -14 -9
-17 6 -7 45 28 45 40 0 5 -6 6 -12 2 -7 -4 -3 3 9 15 25 24 42 29 23 6 -6 -8
-9 -19 -5 -25 3 -6 -14 -40 -40 -75 -40 -56 -75 -122 -75 -140 0 -3 7 -5 15
-5 8 0 15 -1 15 -3 0 -1 -16 -34 -36 -72 l-36 -70 32 38 c18 21 35 36 38 33 3
-3 -1 -14 -10 -23 -19 -23 -63 -132 -46 -115 22 22 32 13 11 -10 -34 -38 -39
-52 -14 -39 19 11 20 10 14 -21 -3 -18 -10 -37 -14 -42 -5 -6 -9 -21 -9 -35 0
-21 2 -23 10 -11 7 10 9 -3 6 -42 -2 -33 0 -58 6 -58 5 0 7 -8 5 -17 -3 -10
-8 -31 -11 -48 l-6 -30 15 28 c19 33 29 35 22 5 -5 -21 -4 -20 14 5 28 36 39
34 32 -7 -7 -46 14 -57 23 -11 10 53 24 52 25 -2 l1 -48 11 42 c14 47 27 66
27 37 0 -11 10 -32 22 -47 l22 -27 10 32 c12 35 36 50 36 21 1 -16 2 -15 13 3
14 25 23 19 47 -31 l14 -30 4 30 4 29 20 -24 c11 -14 17 -19 13 -12 -13 26 8
35 26 11 15 -20 19 -21 19 -6 0 20 16 23 23 5 3 -7 6 -4 6 7 1 19 3 18 22 -5
20 -24 21 -24 16 -3 -5 22 -4 22 24 7 16 -8 29 -19 29 -24 0 -6 4 -10 10 -10
17 0 3 86 -24 144 -14 31 -26 62 -26 69 0 7 -4 17 -9 23 -5 5 -33 54 -61 109
-60 117 -71 132 -63 82 7 -47 -5 -47 -36 -1 -14 20 -30 33 -38 30 -7 -3 -13 1
-13 8 0 7 -7 19 -15 26 -14 12 -38 57 -47 90 -3 9 -10 2 -19 -18 -7 -18 -17
-32 -20 -32 -8 0 -19 53 -19 91 0 19 -5 29 -15 29 -8 0 -14 -8 -13 -18 4 -45
-3 -92 -13 -92 -19 0 -1 148 24 202 21 46 37 61 37 36 0 -13 29 -48 40 -48 5
0 4 16 0 36 -7 32 0 102 26 248 6 31 4 38 -7 34 -8 -2 -19 -15 -25 -27 -21
-42 -35 -48 -24 -11 5 19 7 36 5 39 -3 2 -5 -1 -5 -7 0 -7 -7 -12 -15 -12 -13
0 -13 4 -3 22 7 13 15 25 18 28 3 3 6 12 5 21 0 9 22 44 49 78 49 61 79 79 69
41 -3 -11 -1 -20 4 -20 16 0 33 -48 34 -98 1 -41 2 -43 8 -17 11 43 50 115 62
115 7 0 9 -10 5 -26 -5 -17 -3 -23 4 -19 5 3 10 13 10 21 0 8 5 14 10 14 6 0
10 -4 10 -9 0 -14 49 -66 63 -66 7 -1 21 -5 31 -10 19 -8 19 -9 0 -17 -13 -6
-10 -7 10 -2 66 12 94 31 101 66 4 18 16 48 26 66 23 40 24 46 4 38 -21 -8
-19 8 5 29 11 10 20 24 20 31 0 7 4 16 10 19 11 7 2 -23 -13 -43 -5 -7 -7 -15
-4 -18 10 -10 48 60 42 76 -4 8 4 22 17 32 20 15 21 19 8 29 -13 9 -12 10 3 5
11 -3 17 0 17 10 0 8 4 13 9 9 5 -3 29 22 53 56 29 41 44 57 46 46 5 -26 17
-20 38 18 12 23 21 30 26 22 5 -8 8 -4 8 11 0 12 3 22 8 22 4 0 15 22 25 49
18 51 23 84 6 42 -5 -13 -12 -21 -15 -18 -4 3 3 23 15 43 37 63 71 208 71 306
0 48 -5 90 -10 93 -13 8 -3 51 22 93 12 19 18 43 15 58 -3 18 -1 24 9 20 20
-8 17 24 -3 40 -10 7 -27 13 -38 13 -11 0 -54 17 -96 38 -73 37 -76 40 -88 85
-13 50 -31 73 -31 41 0 -14 -3 -13 -13 6 -15 31 -37 39 -37 14 0 -15 -3 -14
-21 7 -14 16 -19 19 -15 8 8 -26 1 -23 -44 23 -23 23 -44 39 -47 35 -4 -3 -1
-12 5 -18 7 -7 12 -19 12 -27 0 -12 -5 -10 -18 6 -19 24 -131 83 -158 83 -18
0 96 -85 129 -96 9 -4 17 -10 17 -16 0 -5 -7 -5 -17 0 -10 5 -40 19 -68 32
-27 13 -57 29 -65 36 -19 16 -156 54 -190 53 -15 -1 -1 -7 33 -16 83 -22 65
-26 -31 -7 -50 10 -82 22 -82 29 0 16 -56 25 -89 14 -14 -5 -79 -11 -144 -15
-65 -3 -117 -8 -115 -10 2 -1 36 -4 75 -5 45 -2 69 -7 67 -13 -3 -7 -58 -11
-154 -11 -82 0 -146 3 -142 6 4 4 35 12 70 18 51 10 75 21 124 61 33 26 87 62
119 80 41 21 59 37 55 46 -6 15 23 37 64 49 14 4 46 22 71 41 41 30 220 107
358 155 30 11 69 27 86 38 19 11 43 16 61 14 36 -5 108 22 99 37 -3 5 1 10 10
10 9 0 14 -3 11 -8z m524 -2 c0 -5 -4 -10 -10 -10 -5 0 -10 5 -10 10 0 6 5 10
10 10 6 0 10 -4 10 -10z m2070 0 c0 -5 -2 -10 -4 -10 -2 0 -11 -3 -19 -6 -8
-3 -17 2 -20 10 -5 12 0 16 18 16 14 0 25 -4 25 -10z m-3520 -10 c0 -5 -4 -10
-10 -10 -5 0 -10 5 -10 10 0 6 5 10 10 10 6 0 10 -4 10 -10z m120 -10 c0 -5
-4 -10 -10 -10 -5 0 -10 5 -10 10 0 6 5 10 10 10 6 0 10 -4 10 -10z m1820 -6
c0 -17 -22 -14 -28 4 -2 7 3 12 12 12 9 0 16 -7 16 -16z m170 -19 c0 -8 -4
-15 -10 -15 -5 0 -10 7 -10 15 0 8 5 15 10 15 6 0 10 -7 10 -15z m300 5 c0 -5
-7 -10 -16 -10 -8 0 -12 5 -9 10 3 6 10 10 16 10 5 0 9 -4 9 -10z m-3326 -8
c3 -5 8 -29 12 -53 l6 -44 -30 31 c-33 34 -39 74 -10 74 9 0 19 -4 22 -8z
m3366 -13 c0 -5 -7 -9 -15 -9 -8 0 -15 7 -15 15 0 9 6 12 15 9 8 -4 15 -10 15
-15z m1070 7 c0 -8 -4 -18 -10 -21 -5 -3 -10 3 -10 14 0 12 5 21 10 21 6 0 10
-6 10 -14z m-3380 -12 c0 -8 -5 -12 -10 -9 -6 4 -8 11 -5 16 9 14 15 11 15 -7z
m2524 0 c4 -10 1 -14 -6 -12 -15 5 -23 28 -10 28 5 0 13 -7 16 -16z m436 6 c0
-5 -4 -10 -10 -10 -5 0 -10 5 -10 10 0 6 5 10 10 10 6 0 10 -4 10 -10z m-430
-49 c0 -6 -4 -13 -10 -16 -5 -3 -10 1 -10 9 0 9 5 16 10 16 6 0 10 -4 10 -9z
m-4033 -23 c-3 -8 -6 -5 -6 6 -1 11 2 17 5 13 3 -3 4 -12 1 -19z m1542 1 c-16
-10 -23 -4 -14 10 3 6 11 8 17 5 6 -4 5 -9 -3 -15z m2081 -15 c0 -8 -4 -14
-10 -14 -5 0 -10 9 -10 21 0 11 5 17 10 14 6 -3 10 -13 10 -21z m1130 0 c0 -8
-5 -12 -10 -9 -6 4 -8 11 -5 16 9 14 15 11 15 -7z m207 -9 c8 -22 -6 -33 -17
-15 -13 20 -12 30 0 30 6 0 13 -7 17 -15z m-307 -15 c0 -5 -4 -10 -10 -10 -5
0 -10 5 -10 10 0 6 5 10 10 10 6 0 10 -4 10 -10z m-930 -10 c0 -5 -2 -10 -4
-10 -3 0 -8 5 -11 10 -3 6 -1 10 4 10 6 0 11 -4 11 -10z m-3340 -4 c0 -3 -4
-8 -10 -11 -5 -3 -10 -1 -10 4 0 6 5 11 10 11 6 0 10 -2 10 -4z m-265 -16 c3
-5 1 -10 -4 -10 -6 0 -11 5 -11 10 0 6 2 10 4 10 3 0 8 -4 11 -10z m-45 -4 c0
-3 -4 -8 -10 -11 -5 -3 -10 -1 -10 4 0 6 5 11 10 11 6 0 10 -2 10 -4z m4000
-16 c0 -5 -4 -10 -10 -10 -5 0 -10 5 -10 10 0 6 5 10 10 10 6 0 10 -4 10 -10z
m-105 -30 c0 -7 -5 -15 -12 -17 -7 -3 -11 4 -10 16 1 23 22 23 22 1z m-2883
-52 c-7 -7 -12 -8 -12 -2 0 14 12 26 19 19 2 -3 -1 -11 -7 -17z m-972 -8 c0
-5 -7 -10 -15 -10 -8 0 -15 5 -15 10 0 6 7 10 15 10 8 0 15 -4 15 -10z m4527
-59 c-4 -53 -3 -62 16 -75 21 -14 21 -15 3 -15 -18 -1 -17 -4 7 -29 15 -15 27
-30 27 -33 0 -3 -15 -3 -32 -1 -21 2 -55 -7 -92 -23 -32 -14 -61 -24 -64 -21
-2 3 1 19 8 36 12 29 11 33 -20 71 -39 48 -29 63 35 54 39 -5 41 -4 74 45 19
27 36 50 39 50 3 0 2 -27 -1 -59z m-567 25 c0 -16 -18 -31 -27 -22 -8 8 5 36
17 36 5 0 10 -6 10 -14z m-3125 -26 c-3 -5 -11 -10 -16 -10 -6 0 -7 5 -4 10 3
6 11 10 16 10 6 0 7 -4 4 -10z m2895 -10 c0 -5 -4 -10 -10 -10 -5 0 -10 5 -10
10 0 6 5 10 10 10 6 0 10 -4 10 -10z m-3036 -29 c3 -5 -4 -11 -16 -14 -25 -7
-33 -3 -23 12 8 13 32 14 39 2z m3106 -11 c0 -5 -4 -10 -10 -10 -5 0 -10 5
-10 10 0 6 5 10 10 10 6 0 10 -4 10 -10z m-3700 -66 c0 -14 -4 -23 -10 -19 -5
3 -10 15 -10 26 0 10 5 19 10 19 6 0 10 -12 10 -26z m4035 6 c3 -5 1 -10 -4
-10 -6 0 -11 5 -11 10 0 6 2 10 4 10 3 0 8 -4 11 -10z m-3735 -4 c0 -2 -7 -6
-15 -10 -8 -3 -15 -1 -15 4 0 6 7 10 15 10 8 0 15 -2 15 -4z m1098 -34 c-28
-2 -48 -8 -48 -15 0 -8 -3 -8 -11 0 -6 6 -18 9 -25 6 -8 -3 -14 0 -14 5 0 12
92 20 125 12 11 -3 -1 -6 -27 -8z m-973 -2 c3 -5 1 -10 -4 -10 -6 0 -11 5 -11
10 0 6 2 10 4 10 3 0 8 -4 11 -10z m88 -22 c3 -8 -4 -13 -19 -13 -24 0 -30 6
-17 18 11 11 30 8 36 -5z m3152 2 c3 -5 -1 -10 -9 -10 -9 0 -16 5 -16 10 0 6
4 10 9 10 6 0 13 -4 16 -10z m119 -5 c42 -6 107 -46 101 -62 -5 -16 25 -25 41
-12 11 9 19 8 35 -7 17 -15 18 -19 5 -26 -8 -5 -13 -15 -10 -23 4 -8 1 -15 -5
-15 -6 0 -11 4 -11 9 0 17 -61 18 -83 1 -53 -40 -160 -90 -192 -90 -19 0 -35
5 -35 10 0 6 13 10 29 10 34 0 86 20 121 47 14 11 33 22 43 26 9 3 17 11 17
17 0 13 -17 13 -25 0 -9 -15 -28 -12 -22 4 6 14 -56 36 -105 36 -21 1 -22 1
-5 11 11 6 31 9 46 6 15 -3 33 -2 41 3 8 5 22 4 33 -2 14 -7 17 -7 13 1 -4 6
-1 11 8 11 8 0 17 -5 19 -10 3 -6 4 -5 3 2 -4 21 -46 24 -141 11 -115 -16
-205 -22 -222 -16 -29 11 -10 22 50 28 34 3 78 7 97 9 19 2 49 5 65 6 28 1 29
2 8 10 -34 14 -28 21 12 15 19 -3 50 -7 69 -10z m116 5 c0 -5 -4 -10 -10 -10
-5 0 -10 5 -10 10 0 6 5 10 10 10 6 0 10 -4 10 -10z m-2970 -10 c0 -5 -6 -10
-14 -10 -8 0 -21 -3 -30 -6 -9 -3 -16 -1 -16 4 0 9 9 13 53 21 4 0 7 -3 7 -9z
m-526 -15 c-6 -16 -24 -21 -24 -7 0 11 11 22 21 22 5 0 6 -7 3 -15z m386 -9
c0 -3 -4 -8 -10 -11 -5 -3 -10 -1 -10 4 0 6 5 11 10 11 6 0 10 -2 10 -4z
m2623 -2 c60 -10 42 -23 -25 -17 -39 4 -59 2 -55 -4 5 -7 -22 -10 -40 -4 -9 3
-18 -2 -16 -8 1 -4 -27 -7 -63 -6 -35 1 -64 -2 -64 -7 0 -4 -11 -8 -25 -8 -14
0 -25 -6 -26 -12 0 -10 -2 -10 -6 -1 -3 9 -11 8 -29 -4 -14 -8 -28 -12 -32 -9
-12 13 29 35 87 46 31 7 79 18 106 25 55 15 130 18 188 9z m647 -14 c0 -5 -2
-10 -4 -10 -3 0 -8 5 -11 10 -3 6 -1 10 4 10 6 0 11 -4 11 -10z m125 -20 c3
-5 1 -10 -4 -10 -6 0 -11 5 -11 10 0 6 2 10 4 10 3 0 8 -4 11 -10z m-4035 -55
c0 -7 12 -27 26 -44 22 -27 32 -31 75 -31 27 0 49 -3 49 -6 0 -3 -11 -19 -25
-36 -25 -29 -25 -38 -8 -102 4 -15 1 -18 -16 -13 -14 3 -26 -1 -35 -15 -14
-19 -15 -19 -36 21 -23 45 -51 62 -92 54 -42 -8 -41 13 3 42 l42 27 -6 58 c-4
31 -4 60 0 63 9 9 23 -2 23 -18z m2865 7 c-21 -19 -128 -75 -121 -63 8 13 106
71 121 71 5 0 5 -3 0 -8z m1045 4 c0 -3 -4 -8 -10 -11 -5 -3 -10 -1 -10 4 0 6
5 11 10 11 6 0 10 -2 10 -4z m184 -22 c4 -11 1 -14 -11 -12 -9 2 -18 9 -21 16
-6 18 25 15 32 -4z m41 6 c3 -5 -1 -10 -9 -10 -9 0 -16 5 -16 10 0 6 4 10 9
10 6 0 13 -4 16 -10z m-505 -10 c0 -5 -2 -10 -4 -10 -3 0 -8 5 -11 10 -3 6 -1
10 4 10 6 0 11 -4 11 -10z m120 -41 c0 -11 -4 -17 -10 -14 -5 3 -10 13 -10 21
0 8 5 14 10 14 6 0 10 -9 10 -21z m-197 -73 c4 -10 1 -13 -9 -9 -15 6 -19 23
-5 23 5 0 11 -7 14 -14z m477 -7 c0 -6 -4 -7 -10 -4 -5 3 -10 11 -10 16 0 6 5
7 10 4 6 -3 10 -11 10 -16z m210 -19 c0 -5 -5 -10 -11 -10 -5 0 -7 5 -4 10 3
6 8 10 11 10 2 0 4 -4 4 -10z m-30 -8 c0 -13 -12 -22 -22 -16 -10 6 -1 24 13
24 5 0 9 -4 9 -8z m-320 -23 c0 -5 -4 -9 -10 -9 -5 0 -10 7 -10 16 0 8 5 12
10 9 6 -3 10 -10 10 -16z m254 5 c5 -14 4 -15 -9 -4 -17 14 -19 20 -6 20 5 0
12 -7 15 -16z m-2147 -10 c-3 -3 -12 -4 -19 -1 -8 3 -5 6 6 6 11 1 17 -2 13
-5z m2188 -4 c3 -5 1 -10 -4 -10 -6 0 -11 5 -11 10 0 6 2 10 4 10 3 0 8 -4 11
-10z m-1769 -26 c-4 -9 -9 -15 -11 -12 -3 3 -3 13 1 22 4 9 9 15 11 12 3 -3 3
-13 -1 -22z m-2536 -4 c0 -5 -4 -10 -10 -10 -5 0 -10 5 -10 10 0 6 5 10 10 10
6 0 10 -4 10 -10z m4730 0 c0 -5 -2 -10 -4 -10 -3 0 -8 5 -11 10 -3 6 -1 10 4
10 6 0 11 -4 11 -10z m-2000 -14 c0 -3 -4 -8 -10 -11 -5 -3 -10 -1 -10 4 0 6
5 11 10 11 6 0 10 -2 10 -4z m1480 -6 c0 -5 -4 -10 -9 -10 -6 0 -13 5 -16 10
-3 6 1 10 9 10 9 0 16 -4 16 -10z m240 -21 c0 -24 -23 -21 -28 4 -2 10 3 17
12 17 10 0 16 -9 16 -21z m-255 -9 c3 -5 2 -10 -4 -10 -5 0 -13 5 -16 10 -3 6
-2 10 4 10 5 0 13 -4 16 -10z m-4305 -39 c0 -6 -4 -13 -10 -16 -5 -3 -10 1
-10 9 0 9 5 16 10 16 6 0 10 -4 10 -9z m4670 -1 c0 -5 -2 -10 -4 -10 -3 0 -8
5 -11 10 -3 6 -1 10 4 10 6 0 11 -4 11 -10z m-4034 -35 c0 -23 -4 -35 -13 -35
-14 0 -17 27 -7 54 10 27 19 18 20 -19z m1389 25 c3 -5 1 -10 -4 -10 -6 0 -11
5 -11 10 0 6 2 10 4 10 3 0 8 -4 11 -10z m548 -10 c-3 -11 -7 -20 -9 -20 -2 0
-4 9 -4 20 0 11 4 20 9 20 5 0 7 -9 4 -20z m98 -7 c-12 -20 -14 -14 -5 12 4 9
9 14 11 11 3 -2 0 -13 -6 -23z m-2681 -13 c0 -5 -4 -10 -10 -10 -5 0 -10 5
-10 10 0 6 5 10 10 10 6 0 10 -4 10 -10z m4453 -5 c4 -8 2 -17 -3 -20 -6 -4
-10 -4 -10 -1 0 2 -3 11 -6 20 -3 9 -2 16 4 16 5 0 12 -7 15 -15z m-2953 -5
c0 -6 -7 -13 -15 -16 -8 -4 -15 -11 -15 -18 0 -12 -90 -96 -103 -96 -4 0 -2 9
5 20 7 11 18 20 24 20 7 0 15 7 18 16 6 15 4 15 -11 3 -15 -11 -15 -10 1 9 11
12 22 18 26 13 3 -6 11 -6 20 -1 12 8 12 10 -3 16 -9 3 -14 10 -11 16 3 5 12
7 20 4 8 -3 17 1 20 9 7 17 24 20 24 5z m2790 -6 c0 -8 -4 -12 -10 -9 -5 3
-10 10 -10 16 0 5 5 9 10 9 6 0 10 -7 10 -16z m-3790 -4 c0 -5 -4 -10 -10 -10
-5 0 -10 5 -10 10 0 6 5 10 10 10 6 0 10 -4 10 -10z m3755 0 c3 -5 1 -10 -4
-10 -6 0 -11 5 -11 10 0 6 2 10 4 10 3 0 8 -4 11 -10z m-4235 -10 c0 -5 -4
-10 -10 -10 -5 0 -10 5 -10 10 0 6 5 10 10 10 6 0 10 -4 10 -10z m2130 -6 c0
-2 -7 -4 -15 -4 -8 0 -15 4 -15 10 0 5 7 7 15 4 8 -4 15 -8 15 -10z m-1778 1
c8 -8 -35 -54 -44 -49 -4 3 -1 16 8 30 16 24 26 29 36 19z m48 -5 c0 -5 -4
-10 -10 -10 -5 0 -10 5 -10 10 0 6 5 10 10 10 6 0 10 -4 10 -10z m3780 0 c0
-5 -2 -10 -4 -10 -3 0 -8 5 -11 10 -3 6 -1 10 4 10 6 0 11 -4 11 -10z m-2120
-26 c0 -8 -4 -12 -10 -9 -5 3 -10 10 -10 16 0 5 5 9 10 9 6 0 10 -7 10 -16z
m-1680 -16 c-25 -9 -36 -5 -26 10 3 6 16 8 28 4 l22 -5 -24 -9z m-436 4 c8
-13 -11 -35 -23 -28 -16 10 -14 36 3 36 8 0 17 -4 20 -8z m2146 -2 c0 -5 -5
-10 -11 -10 -5 0 -7 5 -4 10 3 6 8 10 11 10 2 0 4 -4 4 -10z m530 -20 c0 -5
-5 -10 -11 -10 -5 0 -7 5 -4 10 3 6 8 10 11 10 2 0 4 -4 4 -10z m1770 0 c0 -5
-2 -10 -4 -10 -3 0 -8 5 -11 10 -3 6 -1 10 4 10 6 0 11 -4 11 -10z m-4120 -40
c0 -5 -4 -10 -10 -10 -5 0 -10 5 -10 10 0 6 5 10 10 10 6 0 10 -4 10 -10z
m3070 -25 c7 -8 8 -15 2 -15 -5 0 -15 7 -22 15 -7 8 -8 15 -2 15 5 0 15 -7 22
-15z m-3017 -10 c-6 -17 -25 -15 -31 3 -2 7 5 12 17 12 14 0 19 -5 14 -15z
m3887 -5 c0 -5 -2 -10 -4 -10 -3 0 -8 5 -11 10 -3 6 -1 10 4 10 6 0 11 -4 11
-10z m-2180 -14 c0 -3 -109 -40 -122 -41 -3 0 -10 -3 -14 -7 -10 -11 -24 -10
-24 2 0 15 82 48 123 49 20 1 37 -1 37 -3z m2379 -60 c-7 -7 -59 6 -59 14 0
15 35 17 49 4 8 -8 13 -15 10 -18z m-89 4 c0 -11 -4 -20 -10 -20 -5 0 -10 9
-10 20 0 11 5 20 10 20 6 0 10 -9 10 -20z m450 6 c0 -3 -4 -8 -10 -11 -5 -3
-10 -1 -10 4 0 6 5 11 10 11 6 0 10 -2 10 -4z m-4390 -66 c-24 -16 -31 -11
-19 11 8 16 14 18 22 10 9 -9 8 -14 -3 -21z m50 20 c0 -5 -2 -10 -4 -10 -3 0
-8 5 -11 10 -3 6 -1 10 4 10 6 0 11 -4 11 -10z m1575 0 c3 -5 -6 -12 -20 -16
-31 -8 -33 -37 -3 -58 12 -9 19 -19 15 -22 -12 -13 -47 29 -47 56 0 39 38 67
55 40z m-1485 -12 c0 -7 -5 -20 -10 -28 -8 -12 -10 -9 -10 13 0 15 5 27 10 27
6 0 10 -6 10 -12z m2268 -12 c34 -18 98 -84 89 -92 -5 -5 -127 94 -127 103 0
6 12 2 38 -11z m-2481 -18 c13 -17 14 -58 2 -58 -5 0 -9 6 -9 14 0 7 -7 19
-15 26 -8 7 -12 16 -9 21 7 13 20 11 31 -3z m1617 -52 c14 -25 38 -54 53 -65
35 -28 25 -35 -15 -11 -28 17 -72 84 -72 110 0 18 8 11 34 -34z m-364 15 c-5
-11 -15 -23 -22 -27 -7 -5 -8 -2 -3 7 21 37 44 55 25 20z m2720 5 c0 -3 -4 -8
-10 -11 -5 -3 -10 -1 -10 4 0 6 5 11 10 11 6 0 10 -2 10 -4z m-1580 -27 c0 -5
-4 -9 -10 -9 -5 0 -10 7 -10 16 0 8 5 12 10 9 6 -3 10 -10 10 -16z m50 -38 c0
-19 -39 -75 -46 -68 -3 2 2 17 11 33 8 16 15 37 15 47 0 10 5 15 10 12 6 -3
10 -14 10 -24z m-2375 -105 c-7 -52 -6 -55 24 -77 35 -26 33 -34 -10 -43 -30
-6 -31 -8 -25 -43 4 -21 9 -46 12 -55 7 -24 -9 -23 -32 3 -33 36 -54 43 -70
22 -12 -16 -13 -16 -14 -1 0 9 -7 21 -16 26 -15 8 -15 11 1 35 16 26 16 28 -5
64 -14 23 -19 45 -15 60 l6 24 30 -25 c17 -14 36 -26 43 -26 7 0 25 20 40 45
16 25 31 45 33 45 3 0 1 -24 -2 -54z m4154 -56 c13 6 17 16 14 31 -5 17 -2 20
13 17 14 -3 18 -10 16 -28 -2 -14 -4 -54 -4 -89 l0 -63 -41 5 c-32 4 -50 1
-75 -15 -18 -11 -35 -19 -37 -16 -2 2 1 23 6 47 10 47 3 65 -32 76 -33 11 -21
25 22 25 41 0 41 0 39 38 -3 58 -2 59 30 9 26 -41 33 -46 49 -37z m-259 50 c0
-5 -4 -10 -10 -10 -5 0 -10 5 -10 10 0 6 5 10 10 10 6 0 10 -4 10 -10z m-1560
-10 c0 -5 -4 -10 -10 -10 -5 0 -10 5 -10 10 0 6 5 10 10 10 6 0 10 -4 10 -10z
m-2500 -36 c0 -17 -22 -14 -28 4 -2 7 3 12 12 12 9 0 16 -7 16 -16z m4580 -5
c0 -5 -4 -9 -10 -9 -5 0 -10 7 -10 16 0 8 5 12 10 9 6 -3 10 -10 10 -16z
m-4730 -60 c0 -6 -4 -7 -10 -4 -5 3 -10 11 -10 16 0 6 5 7 10 4 6 -3 10 -11
10 -16z m150 -31 c0 -6 -6 -5 -15 2 -8 7 -15 14 -15 16 0 2 7 1 15 -2 8 -4 15
-11 15 -16z m-156 -14 c3 -8 2 -12 -4 -9 -6 3 -10 10 -10 16 0 14 7 11 14 -7z
m4156 -14 c0 -5 -4 -10 -10 -10 -5 0 -10 5 -10 10 0 6 5 10 10 10 6 0 10 -4
10 -10z m-4000 -44 c-15 -15 -32 7 -24 29 7 17 8 17 21 -1 9 -12 10 -21 3 -28z
m-123 -41 c7 -20 -2 -29 -21 -22 -9 4 -13 13 -10 22 8 19 23 19 31 0z m-67
-15 c0 -15 -43 -19 -56 -5 -20 20 -18 21 21 17 19 -2 35 -8 35 -12z m-95 -10
c3 -5 1 -10 -4 -10 -6 0 -11 5 -11 10 0 6 2 10 4 10 3 0 8 -4 11 -10z m4425
-40 c0 -5 -4 -10 -10 -10 -5 0 -10 5 -10 10 0 6 5 10 10 10 6 0 10 -4 10 -10z
m545 0 c3 -5 1 -10 -4 -10 -6 0 -11 5 -11 10 0 6 2 10 4 10 3 0 8 -4 11 -10z
m-4880 -30 c3 -5 1 -10 -4 -10 -6 0 -11 5 -11 10 0 6 2 10 4 10 3 0 8 -4 11
-10z m75 -4 c0 -8 -4 -17 -9 -21 -12 -7 -24 12 -16 25 9 15 25 12 25 -4z
m-190 -6 c8 -5 11 -12 7 -16 -4 -4 -15 0 -24 9 -18 18 -8 23 17 7z m208 -32
c-8 -13 -19 -23 -25 -21 -8 3 -5 11 8 24 11 11 17 25 13 32 -5 9 -4 9 5 1 9
-8 9 -16 -1 -36z m-118 22 c0 -5 -4 -10 -10 -10 -5 0 -10 5 -10 10 0 6 5 10
10 10 6 0 10 -4 10 -10z m58 -15 c-3 -3 -9 2 -12 12 -6 14 -5 15 5 6 7 -7 10
-15 7 -18z m4427 5 c3 -5 1 -10 -4 -10 -6 0 -11 5 -11 10 0 6 2 10 4 10 3 0 8
-4 11 -10z m279 1 c3 -5 -3 -11 -15 -14 -16 -4 -18 -3 -8 9 13 16 16 17 23 5z
m-4816 -20 c11 -7 11 -9 -1 -14 -9 -3 -18 1 -21 9 -6 16 2 18 22 5z m4462 -1
c0 -5 -5 -10 -11 -10 -5 0 -7 5 -4 10 3 6 8 10 11 10 2 0 4 -4 4 -10z m-4356
-11 c-3 -6 0 -15 7 -20 7 -4 11 -10 8 -13 -3 -3 -14 0 -24 8 -18 13 -14 36 6
36 6 0 7 -5 3 -11z m100 -4 c3 -9 0 -15 -9 -15 -8 0 -15 7 -15 15 0 8 4 15 9
15 5 0 11 -7 15 -15z m2926 -17 c0 -16 -3 -19 -11 -11 -6 6 -8 16 -5 22 11 17
16 13 16 -11z m1740 12 c0 -5 -4 -10 -10 -10 -5 0 -10 5 -10 10 0 6 5 10 10
10 6 0 10 -4 10 -10z m-160 -15 c0 -8 -4 -15 -10 -15 -5 0 -10 7 -10 15 0 8 5
15 10 15 6 0 10 -7 10 -15z m-4720 -27 c0 -5 -7 -8 -15 -8 -17 0 -18 2 -9 25
5 13 8 14 15 3 5 -7 9 -16 9 -20z m4550 22 c0 -5 -2 -10 -4 -10 -3 0 -8 5 -11
10 -3 6 -1 10 4 10 6 0 11 -4 11 -10z m-4310 -10 c0 -5 -2 -10 -4 -10 -3 0 -8
5 -11 10 -3 6 -1 10 4 10 6 0 11 -4 11 -10z m4555 0 c-3 -5 -11 -10 -16 -10
-6 0 -7 5 -4 10 3 6 11 10 16 10 6 0 7 -4 4 -10z m-4591 -16 c4 -10 1 -14 -6
-12 -15 5 -23 28 -10 28 5 0 13 -7 16 -16z m4421 6 c3 -5 -1 -10 -10 -10 -9 0
-13 5 -10 10 3 6 8 10 10 10 2 0 7 -4 10 -10z m235 0 c0 -5 -4 -10 -10 -10 -5
0 -10 5 -10 10 0 6 5 10 10 10 6 0 10 -4 10 -10z m70 -5 c0 -8 -4 -15 -9 -15
-13 0 -22 16 -14 24 11 11 23 6 23 -9z m-4820 -5 c0 -5 -2 -10 -4 -10 -3 0 -8
5 -11 10 -3 6 -1 10 4 10 6 0 11 -4 11 -10z m430 -4 c0 -3 -4 -8 -10 -11 -5
-3 -10 -1 -10 4 0 6 5 11 10 11 6 0 10 -2 10 -4z m4348 -36 c1 -30 -2 -40 -13
-40 -8 0 -15 7 -15 15 0 12 20 65 25 65 1 0 2 -18 3 -40z m-4904 5 c-4 -8 -12
-15 -20 -15 -20 0 -17 18 4 23 9 3 18 5 19 6 1 0 0 -6 -3 -14z m121 1 c15 -8
35 -12 44 -9 9 3 5 -4 -9 -16 -23 -18 -26 -18 -31 -3 -3 9 -12 17 -19 17 -7 0
-15 6 -17 13 -6 15 -1 15 32 -2z m3055 -27 c0 -5 -6 -9 -14 -9 -15 0 -28 24
-19 34 7 7 33 -13 33 -25z m1670 11 c0 -5 -7 -10 -15 -10 -8 0 -15 5 -15 10 0
6 7 10 15 10 8 0 15 -4 15 -10z m-4851 -55 c0 -5 -6 -1 -14 9 -8 10 -11 24 -8
29 6 10 21 -16 22 -38z m4551 29 c0 -8 -4 -12 -10 -9 -5 3 -10 10 -10 16 0 5
5 9 10 9 6 0 10 -7 10 -16z m180 12 c0 -3 -4 -8 -10 -11 -5 -3 -10 -1 -10 4 0
6 5 11 10 11 6 0 10 -2 10 -4z m-4310 -16 c0 -5 -4 -10 -10 -10 -5 0 -10 5
-10 10 0 6 5 10 10 10 6 0 10 -4 10 -10z m-100 -20 c0 -5 -4 -10 -10 -10 -5 0
-10 5 -10 10 0 6 5 10 10 10 6 0 10 -4 10 -10z m4637 -22 c-3 -8 -6 -5 -6 6
-1 11 2 17 5 13 3 -3 4 -12 1 -19z m-5018 -19 c-13 -26 -19 -24 -19 6 0 17 4
23 15 19 11 -5 12 -11 4 -25z m58 4 c10 -14 11 -23 4 -28 -6 -3 -11 1 -11 9 0
9 -7 16 -15 16 -8 0 -15 7 -15 16 0 20 19 14 37 -13z m4643 17 c0 -5 -4 -10
-10 -10 -5 0 -10 5 -10 10 0 6 5 10 10 10 6 0 10 -4 10 -10z m-4408 -15 c0 -5
-5 -11 -11 -13 -6 -2 -11 4 -11 13 0 9 5 15 11 13 6 -2 11 -8 11 -13z m4043 5
c3 -5 1 -10 -4 -10 -6 0 -11 5 -11 10 0 6 2 10 4 10 3 0 8 -4 11 -10z m-4235
-20 c0 -5 -5 -10 -11 -10 -5 0 -7 5 -4 10 3 6 8 10 11 10 2 0 4 -4 4 -10z
m1462 -12 c-7 -7 -12 -8 -12 -2 0 6 3 14 7 17 3 4 9 5 12 2 2 -3 -1 -11 -7
-17z m3424 -35 c8 -3 14 -10 14 -15 0 -7 -4 -7 -12 0 -7 6 -16 11 -20 11 -4 1
-15 4 -25 8 -9 4 -19 1 -21 -5 -4 -14 -22 -6 -22 9 0 6 5 7 10 4 6 -3 10 2 10
11 0 14 3 15 12 6 17 -17 28 -15 29 6 1 11 3 9 6 -6 3 -13 11 -26 19 -29z
m-4699 5 c-3 -8 -6 -5 -6 6 -1 11 2 17 5 13 3 -3 4 -12 1 -19z m4049 -15 c-11
-11 -19 6 -11 24 8 17 8 17 12 0 3 -10 2 -21 -1 -24z m-4207 -31 c10 -19 -7
-52 -27 -52 -16 0 -35 38 -28 56 8 20 43 18 55 -4z m4331 8 c0 -5 -4 -10 -10
-10 -5 0 -10 5 -10 10 0 6 5 10 10 10 6 0 10 -4 10 -10z m70 6 c0 -3 -4 -8
-10 -11 -5 -3 -10 -1 -10 4 0 6 5 11 10 11 6 0 10 -2 10 -4z m430 -21 c0 -8
-4 -15 -10 -15 -5 0 -10 7 -10 15 0 8 5 15 10 15 6 0 10 -7 10 -15z m-40 -5
c0 -5 -2 -10 -4 -10 -3 0 -8 5 -11 10 -3 6 -1 10 4 10 6 0 11 -4 11 -10z
m-4902 -66 c-10 -10 -28 6 -28 24 0 15 1 15 17 -1 9 -9 14 -19 11 -23z m4962
0 c0 -8 -4 -14 -9 -14 -11 0 -22 26 -14 34 9 9 23 -3 23 -20z m-4865 -14 c3
-5 -1 -10 -9 -10 -9 0 -16 5 -16 10 0 6 4 10 9 10 6 0 13 -4 16 -10z m4663 -1
c-2 -6 -8 -10 -13 -10 -5 0 -11 4 -13 10 -2 6 4 11 13 11 9 0 15 -5 13 -11z
m-48 -9 c0 -5 -4 -10 -10 -10 -5 0 -10 5 -10 10 0 6 5 10 10 10 6 0 10 -4 10
-10z m190 -26 c0 -8 -4 -12 -10 -9 -5 3 -10 13 -10 21 0 8 5 12 10 9 6 -3 10
-13 10 -21z m-105 -9 c0 -10 -5 -20 -11 -22 -7 -2 -11 6 -10 22 1 28 21 29 21
0z m45 15 c0 -5 -4 -10 -10 -10 -5 0 -10 5 -10 10 0 6 5 10 10 10 6 0 10 -4
10 -10z m135 -10 c3 -5 1 -10 -4 -10 -6 0 -11 5 -11 10 0 6 2 10 4 10 3 0 8
-4 11 -10z m-4411 -21 c-3 -5 -10 -7 -15 -3 -5 3 -7 10 -3 15 3 5 10 7 15 3 5
-3 7 -10 3 -15z m4186 11 c0 -5 -5 -10 -11 -10 -5 0 -7 5 -4 10 3 6 8 10 11
10 2 0 4 -4 4 -10z m-4600 -35 c0 -8 -7 -15 -15 -15 -9 0 -12 6 -9 15 4 8 10
15 15 15 5 0 9 -7 9 -15z m48 -21 c-10 -10 -28 6 -28 24 0 15 1 15 17 -1 9 -9
14 -19 11 -23z m92 16 c0 -5 -5 -10 -11 -10 -5 0 -7 5 -4 10 3 6 8 10 11 10 2
0 4 -4 4 -10z m2437 -30 c5 -22 7 -40 3 -40 -4 0 -12 18 -18 40 -5 22 -7 40
-3 40 4 0 12 -18 18 -40z m1749 13 c-10 -10 -19 5 -10 18 6 11 8 11 12 0 2 -7
1 -15 -2 -18z m379 7 c3 -5 1 -10 -4 -10 -6 0 -11 5 -11 10 0 6 2 10 4 10 3 0
8 -4 11 -10z m145 -38 c0 -27 -25 -5 -28 24 -3 28 -3 28 12 9 8 -11 16 -26 16
-33z m-170 9 c0 -6 -4 -13 -10 -16 -5 -3 -10 1 -10 9 0 9 5 16 10 16 6 0 10
-4 10 -9z m45 -1 c3 -5 1 -10 -4 -10 -6 0 -11 5 -11 10 0 6 2 10 4 10 3 0 8
-4 11 -10z m-4645 -37 c0 -5 -4 -15 -10 -23 -11 -18 -25 -7 -17 15 6 15 27 21
27 8z m4105 -10 c3 -10 1 -19 -5 -21 -8 -3 -8 -8 1 -18 6 -7 9 -19 6 -26 -6
-15 -27 34 -27 63 0 24 16 25 25 2z m410 6 c4 -6 5 -13 2 -16 -8 -7 -47 7 -47
18 0 13 37 11 45 -2z m-4568 -43 c-9 -23 -37 -20 -37 3 0 21 20 33 34 20 5 -4
6 -15 3 -23z m4308 4 c-5 -8 -11 -8 -17 -2 -6 6 -7 16 -3 22 5 8 11 8 17 2 6
-6 7 -16 3 -22z m155 9 c0 -6 -5 -7 -12 -3 -8 5 -9 2 -5 -9 7 -20 -4 -22 -21
-5 -9 9 -7 14 6 24 18 13 32 10 32 -7z m347 -15 c-9 -9 -28 6 -21 18 4 6 10 6
17 -1 6 -6 8 -13 4 -17z m-92 -24 c-10 -11 -22 -17 -28 -13 -5 3 -3 10 7 15 9
5 16 16 16 25 0 13 3 14 12 5 9 -9 7 -16 -7 -32z m-4876 8 c5 -14 5 -28 -2
-36 -5 -7 -11 -28 -13 -47 -2 -29 1 -35 17 -35 11 0 18 -4 14 -9 -3 -5 -19 -9
-35 -9 -28 1 -30 3 -30 43 0 39 23 115 35 115 3 0 9 -10 14 -22z m391 -8 c0
-5 -7 -10 -15 -10 -8 0 -15 5 -15 10 0 6 7 10 15 10 8 0 15 -4 15 -10z m270 6
c0 -3 -4 -8 -10 -11 -5 -3 -10 -1 -10 4 0 6 5 11 10 11 6 0 10 -2 10 -4z
m3910 -6 c0 -5 -4 -10 -10 -10 -5 0 -10 5 -10 10 0 6 5 10 10 10 6 0 10 -4 10
-10z m-4030 -4 c0 -3 -4 -8 -10 -11 -5 -3 -10 -1 -10 4 0 6 5 11 10 11 6 0 10
-2 10 -4z m4090 -6 c0 -5 -7 -10 -16 -10 -8 0 -12 5 -9 10 3 6 10 10 16 10 5
0 9 -4 9 -10z m79 1 c7 -5 12 -14 9 -21 -2 -7 -10 -4 -22 9 -19 21 -12 28 13
12z m99 -22 c-12 -16 -24 -25 -26 -19 -2 6 4 20 14 30 30 30 37 23 12 -11z
m106 -20 c-10 -16 -24 -9 -24 12 0 18 2 19 15 9 8 -7 12 -16 9 -21z m-64 11
c0 -5 -7 -10 -16 -10 -8 0 -12 5 -9 10 3 6 10 10 16 10 5 0 9 -4 9 -10z
m-4310 -9 c0 -6 -4 -13 -10 -16 -5 -3 -10 1 -10 9 0 9 5 16 10 16 6 0 10 -4
10 -9z m150 -1 c0 -13 -28 -25 -38 -16 -3 4 0 11 8 16 20 13 30 12 30 0z
m-430 -14 c0 -3 -4 -8 -10 -11 -5 -3 -10 -1 -10 4 0 6 5 11 10 11 6 0 10 -2
10 -4z m4470 -48 c0 -21 -35 -1 -36 20 -1 21 0 22 17 6 11 -10 19 -21 19 -26z
m-4285 22 c-3 -5 -11 -10 -16 -10 -6 0 -7 5 -4 10 3 6 11 10 16 10 6 0 7 -4 4
-10z m4215 -11 c0 -5 -7 -9 -15 -9 -15 0 -20 12 -9 23 8 8 24 -1 24 -14z m215
-23 c-10 -14 -21 -23 -26 -20 -14 8 -10 24 6 24 9 0 15 9 15 22 0 16 3 19 11
11 8 -8 6 -18 -6 -37z m-4205 26 c0 -14 -11 -21 -26 -15 -8 3 -11 9 -8 14 7
11 34 12 34 1z m3685 -2 c3 -5 1 -10 -4 -10 -6 0 -11 5 -11 10 0 6 2 10 4 10
3 0 8 -4 11 -10z m-4295 -30 c0 -5 -4 -10 -10 -10 -5 0 -10 5 -10 10 0 6 5 10
10 10 6 0 10 -4 10 -10z m4404 -24 c-5 -13 -9 -14 -20 -5 -11 9 -12 15 -3 26
15 17 32 2 23 -21z m286 14 c0 -5 -4 -10 -10 -10 -5 0 -10 5 -10 10 0 6 5 10
10 10 6 0 10 -4 10 -10z m-4372 -52 c-2 -13 -10 -23 -18 -23 -8 0 -16 10 -18
23 -3 17 2 22 18 22 16 0 21 -5 18 -22z m-308 2 c0 -5 -4 -10 -10 -10 -5 0
-10 5 -10 10 0 6 5 10 10 10 6 0 10 -4 10 -10z m4550 -14 c0 -8 -4 -18 -10
-21 -5 -3 -10 3 -10 14 0 12 5 21 10 21 6 0 10 -6 10 -14z m-240 -17 c0 -5 -4
-9 -10 -9 -5 0 -10 7 -10 16 0 8 5 12 10 9 6 -3 10 -10 10 -16z m444 -3 c-6
-16 -24 -23 -24 -8 0 10 22 33 27 28 2 -2 1 -11 -3 -20z m-159 4 c3 -5 1 -10
-4 -10 -6 0 -11 5 -11 10 0 6 2 10 4 10 3 0 8 -4 11 -10z m-4075 -20 c0 -5 -4
-10 -10 -10 -5 0 -10 5 -10 10 0 6 5 10 10 10 6 0 10 -4 10 -10z m-420 -4 c0
-3 -4 -8 -10 -11 -5 -3 -10 -1 -10 4 0 6 5 11 10 11 6 0 10 -2 10 -4z m4635
-19 c11 -11 8 -14 -16 -14 -37 0 -38 17 -1 26 2 1 9 -5 17 -12z m-330 -7 c3
-5 2 -10 -4 -10 -5 0 -13 5 -16 10 -3 6 -2 10 4 10 5 0 13 -4 16 -10z m-345
-10 c0 -5 -6 -10 -14 -10 -8 0 -18 5 -21 10 -3 6 3 10 14 10 12 0 21 -4 21
-10z m590 0 c0 -5 -9 -10 -21 -10 -11 0 -17 5 -14 10 3 6 13 10 21 10 8 0 14
-4 14 -10z m-200 -20 c0 -5 -5 -10 -11 -10 -5 0 -7 5 -4 10 3 6 8 10 11 10 2
0 4 -4 4 -10z m-1363 -82 c-2 -13 -4 -5 -4 17 -1 22 1 32 4 23 2 -10 2 -28 0
-40z m1543 2 c0 -16 -4 -30 -8 -30 -4 0 -7 12 -6 28 3 32 3 32 9 32 3 0 5 -13
5 -30z m90 6 c0 -3 -4 -8 -10 -11 -5 -3 -10 -1 -10 4 0 6 5 11 10 11 6 0 10
-2 10 -4z m-4204 -114 l-24 -83 36 -69 c20 -38 33 -72 30 -75 -3 -4 -32 7 -63
24 -32 17 -65 31 -73 31 -20 0 -62 -39 -62 -57 0 -16 -68 -93 -82 -93 -12 0
-7 34 20 134 21 77 19 94 -23 194 -15 35 -25 65 -23 67 2 2 32 -14 68 -36 77
-46 94 -48 117 -13 24 37 97 89 101 72 1 -7 -8 -50 -22 -96z m3691 86 c-3 -8
-6 -5 -6 6 -1 11 2 17 5 13 3 -3 4 -12 1 -19z m-247 2 c0 -5 -4 -10 -10 -10
-5 0 -10 5 -10 10 0 6 5 10 10 10 6 0 10 -4 10 -10z m590 -12 c0 -19 -2 -20
-10 -8 -13 19 -13 30 0 30 6 0 10 -10 10 -22z m-4383 -10 c-3 -8 -6 -5 -6 6
-1 11 2 17 5 13 3 -3 4 -12 1 -19z m3936 7 c-3 -9 -8 -14 -10 -11 -3 3 -2 9 2
15 9 16 15 13 8 -4z m294 -11 c-3 -3 -12 -4 -19 -1 -8 3 -5 6 6 6 11 1 17 -2
13 -5z m-17 -24 c0 -5 -5 -10 -11 -10 -5 0 -7 5 -4 10 3 6 8 10 11 10 2 0 4
-4 4 -10z m-156 -21 c-8 -14 -24 -10 -24 6 0 9 6 12 15 9 8 -4 12 -10 9 -15z
m-154 2 c0 -6 -4 -13 -10 -16 -5 -3 -10 1 -10 9 0 9 5 16 10 16 6 0 10 -4 10
-9z m-40 -5 c0 -3 -4 -8 -10 -11 -5 -3 -10 -1 -10 4 0 6 5 11 10 11 6 0 10 -2
10 -4z m80 0 c0 -2 -8 -10 -17 -17 -16 -13 -17 -12 -4 4 13 16 21 21 21 13z
m180 -22 c0 -8 -4 -12 -10 -9 -5 3 -10 13 -10 21 0 8 5 12 10 9 6 -3 10 -13
10 -21z m107 4 c-3 -8 -6 -5 -6 6 -1 11 2 17 5 13 3 -3 4 -12 1 -19z m-27 -19
c0 -6 -4 -7 -10 -4 -5 3 -10 11 -10 16 0 6 5 7 10 4 6 -3 10 -11 10 -16z m67
-1 c-3 -8 -6 -5 -6 6 -1 11 2 17 5 13 3 -3 4 -12 1 -19z m-207 -3 c0 -8 -4
-15 -10 -15 -5 0 -10 7 -10 15 0 8 5 15 10 15 6 0 10 -7 10 -15z m-375 -25
c-5 -8 -11 -8 -21 1 -12 10 -12 14 -2 20 16 10 33 -5 23 -21z m226 -3 c-13
-12 -20 -15 -16 -7 14 26 28 41 33 35 3 -3 -5 -16 -17 -28z m439 23 c0 -5 -4
-10 -10 -10 -5 0 -10 5 -10 10 0 6 5 10 10 10 6 0 10 -4 10 -10z m-382 -19 c3
-8 -1 -12 -9 -9 -7 2 -15 10 -17 17 -3 8 1 12 9 9 7 -2 15 -10 17 -17z m282
-7 c0 -8 -4 -12 -10 -9 -5 3 -10 10 -10 16 0 5 5 9 10 9 6 0 10 -7 10 -16z
m-3670 -3 c0 -14 -18 -23 -30 -16 -6 4 -8 11 -5 16 8 12 35 12 35 0z m3557 -7
c-3 -3 -12 -4 -19 -1 -8 3 -5 6 6 6 11 1 17 -2 13 -5z m-3460 -20 c-3 -3 -12
-4 -19 -1 -8 3 -5 6 6 6 11 1 17 -2 13 -5z m3593 -4 c0 -5 -4 -10 -10 -10 -5
0 -10 5 -10 10 0 6 5 10 10 10 6 0 10 -4 10 -10z m70 -10 c0 -5 -4 -10 -10
-10 -5 0 -10 5 -10 10 0 6 5 10 10 10 6 0 10 -4 10 -10z m-4356 -21 c-3 -5
-10 -7 -15 -3 -5 3 -7 10 -3 15 3 5 10 7 15 3 5 -3 7 -10 3 -15z m46 11 c0 -5
-4 -10 -10 -10 -5 0 -10 5 -10 10 0 6 5 10 10 10 6 0 10 -4 10 -10z m4030 0
c0 -5 -4 -10 -10 -10 -5 0 -10 5 -10 10 0 6 5 10 10 10 6 0 10 -4 10 -10z
m-80 -19 c0 -6 -5 -13 -10 -16 -15 -9 -43 3 -35 15 8 13 45 13 45 1z m-3240
-43 c0 -10 -4 -18 -9 -18 -16 0 -23 19 -16 41 6 17 9 19 16 8 5 -8 9 -22 9
-31z m3450 32 c0 -5 -4 -10 -10 -10 -5 0 -10 5 -10 10 0 6 5 10 10 10 6 0 10
-4 10 -10z m171 -33 c-8 -8 -11 -7 -11 4 0 20 13 34 18 19 3 -7 -1 -17 -7 -23z
m-3591 8 c0 -8 -2 -15 -4 -15 -2 0 -6 7 -10 15 -3 8 -1 15 4 15 6 0 10 -7 10
-15z m3121 -8 c-13 -13 -26 -3 -16 12 3 6 11 8 17 5 6 -4 6 -10 -1 -17z m259
8 c0 -8 -4 -15 -10 -15 -5 0 -10 7 -10 15 0 8 5 15 10 15 6 0 10 -7 10 -15z
m-3484 -32 c-11 -11 -19 6 -11 24 8 17 8 17 12 0 3 -10 2 -21 -1 -24z m3414
27 c0 -5 -7 -10 -16 -10 -8 0 -12 5 -9 10 3 6 10 10 16 10 5 0 9 -4 9 -10z
m-280 -10 c0 -5 -4 -10 -10 -10 -5 0 -10 5 -10 10 0 6 5 10 10 10 6 0 10 -4
10 -10z m-3850 -10 c0 -5 -4 -10 -10 -10 -5 0 -10 5 -10 10 0 6 5 10 10 10 6
0 10 -4 10 -10z m-80 -20 c0 -5 -2 -10 -4 -10 -3 0 -8 5 -11 10 -3 6 -1 10 4
10 6 0 11 -4 11 -10z m3635 -20 c20 -23 17 -24 -20 -10 -14 5 -23 14 -20 20 9
15 20 12 40 -10z m498 -45 c9 -36 27 -87 40 -113 l23 -47 72 -8 c40 -5 72 -13
72 -18 0 -5 -28 -30 -62 -57 -103 -79 -101 -74 -96 -158 3 -64 1 -73 -13 -71
-10 2 -38 29 -64 60 -25 31 -48 57 -51 57 -2 0 -42 -21 -89 -46 -47 -25 -85
-43 -85 -41 0 3 16 33 36 66 22 37 39 80 42 107 5 45 4 46 -57 105 -33 33 -61
61 -61 63 0 12 101 -19 132 -40 20 -14 42 -23 47 -19 19 11 39 60 56 131 9 38
19 75 21 82 8 28 22 8 37 -53z m-3493 29 c0 -2 -7 -4 -15 -4 -8 0 -15 4 -15
10 0 5 7 7 15 4 8 -4 15 -8 15 -10z m3040 -4 c0 -5 -4 -10 -10 -10 -5 0 -10 5
-10 10 0 6 5 10 10 10 6 0 10 -4 10 -10z m-2644 -44 c7 -18 -12 -56 -28 -56
-6 0 -21 11 -34 25 l-24 26 23 9 c33 13 57 12 63 -4z m-316 -5 c0 -15 -19 -23
-38 -16 -14 5 -14 7 -2 15 19 12 40 13 40 1z m177 -13 c-3 -8 -6 -5 -6 6 -1
11 2 17 5 13 3 -3 4 -12 1 -19z m43 12 c0 -5 -2 -10 -4 -10 -3 0 -8 5 -11 10
-3 6 -1 10 4 10 6 0 11 -4 11 -10z m-309 -13 c-1 -12 -15 -9 -19 4 -3 6 1 10
8 8 6 -3 11 -8 11 -12z m141 -9 c-7 -7 -12 -8 -12 -2 0 14 12 26 19 19 2 -3
-1 -11 -7 -17z m3788 3 c0 -6 -4 -13 -10 -16 -5 -3 -10 1 -10 9 0 9 5 16 10
16 6 0 10 -4 10 -9z m-4410 -21 c0 -5 -4 -10 -10 -10 -5 0 -10 5 -10 10 0 6 5
10 10 10 6 0 10 -4 10 -10z m250 -29 c0 -6 -4 -13 -10 -16 -5 -3 -10 1 -10 9
0 9 5 16 10 16 6 0 10 -4 10 -9z m80 -1 c0 -5 -4 -10 -10 -10 -5 0 -10 5 -10
10 0 6 5 10 10 10 6 0 10 -4 10 -10z m4110 -36 c0 -8 -4 -14 -9 -14 -11 0 -22
26 -14 34 9 9 23 -3 23 -20z m-3470 12 c0 -3 -4 -8 -10 -11 -5 -3 -10 -1 -10
4 0 6 5 11 10 11 6 0 10 -2 10 -4z m-480 -16 c0 -5 -7 -10 -16 -10 -8 0 -12 5
-9 10 3 6 10 10 16 10 5 0 9 -4 9 -10z m150 0 c0 -5 -5 -10 -11 -10 -5 0 -7 5
-4 10 3 6 8 10 11 10 2 0 4 -4 4 -10z m80 1 c0 -6 -4 -13 -10 -16 -5 -3 -10 1
-10 9 0 9 5 16 10 16 6 0 10 -4 10 -9z m170 5 c0 -3 -4 -8 -10 -11 -5 -3 -10
-1 -10 4 0 6 5 11 10 11 6 0 10 -2 10 -4z m3410 -6 c0 -5 -4 -10 -10 -10 -5 0
-10 5 -10 10 0 6 5 10 10 10 6 0 10 -4 10 -10z m56 -27 c-8 -8 -36 10 -36 25
0 13 3 12 20 -3 11 -10 18 -20 16 -22z m-3186 -3 c0 -5 -4 -10 -10 -10 -5 0
-10 5 -10 10 0 6 5 10 10 10 6 0 10 -4 10 -10z m-550 -10 c0 -5 -4 -10 -10
-10 -5 0 -10 5 -10 10 0 6 5 10 10 10 6 0 10 -4 10 -10z m-533 -16 c-3 -3 -12
-4 -19 -1 -8 3 -5 6 6 6 11 1 17 -2 13 -5z m693 -4 c0 -5 -4 -10 -10 -10 -5 0
-10 5 -10 10 0 6 5 10 10 10 6 0 10 -4 10 -10z m-767 -14 c4 -10 0 -12 -14 -9
-10 3 -16 9 -13 14 8 13 21 11 27 -5z m137 -2 c0 -8 -5 -12 -10 -9 -6 4 -8 11
-5 16 9 14 15 11 15 -7z m270 6 c0 -5 -4 -10 -10 -10 -5 0 -10 5 -10 10 0 6 5
10 10 10 6 0 10 -4 10 -10z m-663 -22 c-3 -8 -6 -5 -6 6 -1 11 2 17 5 13 3 -3
4 -12 1 -19z m513 8 c0 -8 -4 -18 -10 -21 -5 -3 -10 -4 -10 -1 0 2 -3 11 -6
20 -4 11 -1 16 10 16 9 0 16 -6 16 -14z m880 4 c0 -5 -4 -10 -10 -10 -5 0 -10
5 -10 10 0 6 5 10 10 10 6 0 10 -4 10 -10z m-299 -37 c-12 -20 -14 -14 -5 12
4 9 9 14 11 11 3 -2 0 -13 -6 -23z m3559 17 c0 -5 -5 -10 -11 -10 -5 0 -7 5
-4 10 3 6 8 10 11 10 2 0 4 -4 4 -10z m-3510 -4 c0 -3 -4 -8 -10 -11 -5 -3
-10 -1 -10 4 0 6 5 11 10 11 6 0 10 -2 10 -4z m3600 -6 c0 -5 -4 -10 -10 -10
-5 0 -10 5 -10 10 0 6 5 10 10 10 6 0 10 -4 10 -10z m-4120 -21 c0 -5 -7 -9
-15 -9 -15 0 -20 12 -9 23 8 8 24 -1 24 -14z m4070 11 c0 -5 -4 -10 -10 -10
-5 0 -10 5 -10 10 0 6 5 10 10 10 6 0 10 -4 10 -10z m208 -22 c9 -9 12 -9 12
1 0 7 5 11 11 9 9 -3 13 -24 23 -138 2 -14 6 -33 10 -43 5 -9 5 -25 0 -35 -6
-14 -8 -12 -13 11 -4 16 -17 33 -35 42 -36 19 -42 19 -26 0 10 -12 10 -15 -3
-15 -9 0 -21 9 -27 20 -9 17 -7 22 11 28 16 6 27 4 41 -10 26 -26 30 -20 17
25 -6 22 -14 35 -21 31 -7 -4 -8 4 -3 25 5 23 3 31 -6 29 -7 -2 -15 5 -17 15
-4 20 9 22 26 5z m-4558 -2 c0 -3 -4 -8 -10 -11 -5 -3 -10 -1 -10 4 0 6 5 11
10 11 6 0 10 -2 10 -4z m468 -25 c3 -9 0 -11 -7 -6 -7 4 -18 -1 -26 -11 -13
-17 -16 -17 -25 -4 -5 8 -10 20 -10 26 0 16 62 12 68 -5z m52 4 c0 -8 -12 -18
-26 -21 -15 -4 -23 -12 -20 -20 3 -7 -4 -16 -15 -19 -11 -4 -18 -14 -17 -22 2
-9 -3 -18 -11 -21 -9 -3 -11 1 -6 17 6 20 4 22 -31 19 -21 -2 -39 2 -41 8 -6
17 22 24 55 14 27 -7 33 -4 59 26 29 36 53 44 53 19z m240 -9 c0 -36 -15 -40
-17 -5 -1 16 2 29 7 29 6 0 10 -11 10 -24z m3605 4 c-3 -5 -10 -10 -16 -10 -5
0 -9 5 -9 10 0 6 7 10 16 10 8 0 12 -4 9 -10z m109 -24 c-3 -9 -10 -16 -15
-16 -6 0 -5 9 1 21 13 24 24 20 14 -5z m-4208 -2 c-3 -9 -6 -18 -6 -20 0 -2
-7 -4 -15 -4 -18 0 -19 12 -3 28 17 17 31 15 24 -4z m4254 -23 c0 -25 -11 -33
-26 -20 -10 8 -11 16 -3 30 12 22 29 16 29 -10z m-1335 10 c3 -5 1 -12 -5 -16
-5 -3 -10 1 -10 9 0 18 6 21 15 7z m-2415 -15 c0 -3 -4 -8 -10 -11 -5 -3 -10
-1 -10 4 0 6 5 11 10 11 6 0 10 -2 10 -4z m3695 -21 c17 -14 24 -25 17 -25 -7
0 -11 -4 -8 -8 2 -4 -4 -13 -15 -20 -11 -7 -19 -8 -19 -2 0 5 4 10 9 10 16 0
6 39 -14 54 -11 9 -15 15 -10 15 6 0 24 -11 40 -24z m-4450 5 c3 -5 1 -10 -4
-10 -6 0 -11 5 -11 10 0 6 2 10 4 10 3 0 8 -4 11 -10z m605 0 c0 -5 -2 -10 -4
-10 -3 0 -8 5 -11 10 -3 6 -1 10 4 10 6 0 11 -4 11 -10z m-40 -15 c0 -8 -4
-15 -10 -15 -5 0 -10 7 -10 15 0 8 5 15 10 15 6 0 10 -7 10 -15z m675 5 c3 -5
2 -10 -4 -10 -5 0 -13 5 -16 10 -3 6 -2 10 4 10 5 0 13 -4 16 -10z m2007 -44
c-4 -46 0 -62 24 -105 23 -40 26 -53 16 -63 -9 -9 -12 -9 -12 4 0 18 -20 28
-56 28 -25 0 -31 -12 -37 -80 -2 -29 -4 -32 -12 -15 -15 37 -35 53 -58 47 -21
-5 -21 -4 -4 15 22 26 21 72 -3 103 -11 14 -20 28 -20 32 0 4 22 4 50 1 l49
-6 28 46 c15 26 31 47 34 47 3 0 4 -24 1 -54z m928 33 c0 -6 -4 -7 -10 -4 -5
3 -10 11 -10 16 0 6 5 7 10 4 6 -3 10 -11 10 -16z m-90 -9 c0 -5 -4 -10 -10
-10 -5 0 -10 5 -10 10 0 6 5 10 10 10 6 0 10 -4 10 -10z m-3300 -10 c0 -5 -7
-10 -15 -10 -8 0 -15 5 -15 10 0 6 7 10 15 10 8 0 15 -4 15 -10z m120 1 c3 -1
-1 -5 -9 -10 -15 -9 -48 -4 -57 10 -4 7 21 7 66 0z m-413 -33 c-3 -8 -6 -5 -6
6 -1 11 2 17 5 13 3 -3 4 -12 1 -19z m1919 0 c18 -20 18 -21 1 -15 -10 4 -23
7 -28 7 -5 0 -9 7 -9 15 0 21 14 19 36 -7z m-1851 -8 c3 -5 1 -10 -4 -10 -6 0
-11 5 -11 10 0 6 2 10 4 10 3 0 8 -4 11 -10z m675 0 c0 -5 -4 -10 -10 -10 -5
0 -10 5 -10 10 0 6 5 10 10 10 6 0 10 -4 10 -10z m2905 0 c3 -5 -1 -10 -10
-10 -9 0 -13 5 -10 10 3 6 8 10 10 10 2 0 7 -4 10 -10z m235 -11 c0 -5 -4 -9
-10 -9 -5 0 -10 7 -10 16 0 8 5 12 10 9 6 -3 10 -10 10 -16z m-1753 -5 c10
-27 -11 -36 -56 -22 -22 7 -41 17 -41 21 0 5 4 5 10 2 5 -3 18 -1 27 4 26 15
53 13 60 -5z m1808 6 c3 -5 -1 -10 -10 -10 -9 0 -13 5 -10 10 3 6 8 10 10 10
2 0 7 -4 10 -10z m-4155 -9 c0 -6 -4 -13 -10 -16 -5 -3 -10 1 -10 9 0 9 5 16
10 16 6 0 10 -4 10 -9z m3272 -13 c-7 -7 -12 -8 -12 -2 0 14 12 26 19 19 2 -3
-1 -11 -7 -17z m-1110 -23 c3 -14 1 -25 -3 -25 -5 0 -5 -7 -2 -17 4 -11 3 -14
-5 -9 -7 4 -12 14 -12 22 0 8 -4 14 -10 14 -5 0 -10 -4 -10 -10 0 -5 -6 -7
-13 -4 -10 4 -7 12 12 33 29 33 37 32 43 -4z m48 14 c0 -5 -4 -9 -8 -9 -5 0
-9 7 -9 15 0 8 4 12 9 9 4 -3 8 -9 8 -15z m1990 11 c0 -5 -7 -10 -15 -10 -8 0
-15 -4 -15 -10 0 -5 -4 -10 -10 -10 -28 0 1 30 38 39 1 1 2 -3 2 -9z m-4720
-16 c0 -8 -4 -12 -10 -9 -5 3 -10 10 -10 16 0 5 5 9 10 9 6 0 10 -7 10 -16z
m560 6 c0 -5 -4 -10 -10 -10 -5 0 -10 5 -10 10 0 6 5 10 10 10 6 0 10 -4 10
-10z m3650 0 c0 -5 -4 -10 -10 -10 -5 0 -10 5 -10 10 0 6 5 10 10 10 6 0 10
-4 10 -10z m444 -22 c-3 -4 -16 -3 -29 2 -18 7 -25 6 -25 -2 0 -6 -3 -8 -6 -5
-4 4 -2 13 5 21 9 11 17 11 35 3 14 -7 22 -15 20 -19z m-4004 12 c0 -5 -4 -10
-10 -10 -5 0 -10 5 -10 10 0 6 5 10 10 10 6 0 10 -4 10 -10z m780 0 c0 -5 -4
-10 -10 -10 -5 0 -10 5 -10 10 0 6 5 10 10 10 6 0 10 -4 10 -10z m-445 -10
c-3 -5 -13 -10 -21 -10 -8 0 -12 5 -9 10 3 6 13 10 21 10 8 0 12 -4 9 -10z
m3753 -10 c10 -17 10 -20 -3 -20 -8 0 -15 2 -15 4 0 2 -3 11 -6 20 -9 23 9 20
24 -4z m-333 0 c3 -5 1 -10 -4 -10 -6 0 -11 5 -11 10 0 6 2 10 4 10 3 0 8 -4
11 -10z m415 -17 c0 -25 -1 -26 -16 -11 -9 9 -13 21 -10 27 13 20 26 11 26
-16z m-4167 -28 c51 -49 64 -52 147 -34 28 6 54 8 57 5 3 -3 -13 -34 -36 -68
-39 -58 -41 -66 -37 -115 3 -29 10 -62 16 -73 11 -21 11 -21 -18 -6 -15 8 -34
22 -41 30 -23 28 -49 18 -77 -27 -29 -47 -61 -76 -83 -77 -12 0 -12 3 -3 12
13 13 16 78 6 115 -8 29 -67 48 -95 30 -10 -6 -22 -7 -26 -3 -4 5 -2 11 6 14
8 3 24 15 35 27 12 11 38 32 60 45 38 23 38 23 32 73 -4 28 -11 58 -16 67 -10
18 -4 30 15 30 6 0 33 -20 58 -45z m1767 35 c0 -5 -4 -10 -10 -10 -5 0 -10 5
-10 10 0 6 5 10 10 10 6 0 10 -4 10 -10z m1420 0 c0 -5 -5 -10 -11 -10 -5 0
-7 5 -4 10 3 6 8 10 11 10 2 0 4 -4 4 -10z m-2009 -53 c14 -17 20 -19 47 -9
40 14 40 9 1 -26 l-31 -28 15 -52 c9 -29 14 -52 12 -52 -2 0 -15 11 -29 25
-33 33 -53 32 -110 -6 -51 -34 -72 -32 -38 4 29 31 54 94 47 118 -4 10 -15 19
-26 19 -11 0 -17 5 -14 10 3 6 14 10 24 10 11 0 29 9 42 20 22 17 25 18 34 3
6 -8 17 -25 26 -36z m209 43 c0 -5 -4 -10 -10 -10 -5 0 -10 5 -10 10 0 6 5 10
10 10 6 0 10 -4 10 -10z m510 0 c0 -5 -2 -10 -4 -10 -3 0 -8 5 -11 10 -3 6 -1
10 4 10 6 0 11 -4 11 -10z m2018 -8 c2 -7 -3 -12 -12 -12 -9 0 -16 7 -16 16 0
17 22 14 28 -4z m-589 -24 c12 -16 11 -18 -3 -18 -10 0 -14 5 -11 10 3 6 1 10
-5 10 -6 0 -8 5 -5 11 4 6 8 9 9 7 1 -2 8 -11 15 -20z m761 2 c-6 -11 -15 -20
-20 -20 -16 0 -11 18 8 29 24 14 24 14 12 -9z m-2195 0 c3 -5 2 -10 -4 -10 -5
0 -13 5 -16 10 -3 6 -2 10 4 10 5 0 13 -4 16 -10z m2085 -10 c0 -5 -5 -10 -11
-10 -5 0 -7 5 -4 10 3 6 8 10 11 10 2 0 4 -4 4 -10z m190 -9 c0 -26 -23 -44
-38 -29 -17 17 -15 33 3 18 13 -10 15 -9 15 9 0 11 5 21 10 21 6 0 10 -8 10
-19z m-740 -6 c0 -8 -4 -15 -10 -15 -5 0 -10 7 -10 15 0 8 5 15 10 15 6 0 10
-7 10 -15z m-3662 -6 c-2 -6 -8 -10 -13 -10 -5 0 -11 4 -13 10 -2 6 4 11 13
11 9 0 15 -5 13 -11z m710 -10 c-2 -6 -8 -10 -13 -10 -5 0 -11 4 -13 10 -2 6
4 11 13 11 9 0 15 -5 13 -11z m1002 -20 c0 -6 -4 -7 -10 -4 -5 3 -10 11 -10
16 0 6 5 7 10 4 6 -3 10 -11 10 -16z m1595 1 c0 -22 -29 -18 -33 3 -3 14 1 18
15 15 10 -2 18 -10 18 -18z m-1045 0 c0 -5 -4 -10 -10 -10 -5 0 -10 5 -10 10
0 6 5 10 10 10 6 0 10 -4 10 -10z m2126 -25 c-4 -24 -16 -30 -16 -7 0 12 4 22
9 22 5 0 8 -7 7 -15z m-4603 -10 c-4 -15 -36 -12 -41 3 -3 9 3 13 19 10 13 -1
23 -7 22 -13z m4057 -15 c0 -5 -4 -10 -10 -10 -5 0 -10 5 -10 10 0 6 5 10 10
10 6 0 10 -4 10 -10z m415 0 c3 -5 1 -10 -4 -10 -6 0 -11 5 -11 10 0 6 2 10 4
10 3 0 8 -4 11 -10z m-4828 -22 c-3 -8 -6 -5 -6 6 -1 11 2 17 5 13 3 -3 4 -12
1 -19z m2893 2 c-8 -5 -17 -7 -19 -4 -3 3 1 9 9 14 8 5 17 7 19 4 3 -3 -1 -9
-9 -14z m90 4 c0 -2 -7 -4 -15 -4 -8 0 -15 4 -15 10 0 5 7 7 15 4 8 -4 15 -8
15 -10z m-1460 -14 c0 -5 -2 -10 -4 -10 -3 0 -8 5 -11 10 -3 6 -1 10 4 10 6 0
11 -4 11 -10z m1010 0 c0 -5 -4 -10 -9 -10 -6 0 -13 5 -16 10 -3 6 1 10 9 10
9 0 16 -4 16 -10z m274 -21 c-3 -5 -14 -3 -24 3 -13 9 -16 14 -7 20 13 8 39
-10 31 -23z m1106 21 c0 -5 -5 -10 -11 -10 -5 0 -7 5 -4 10 3 6 8 10 11 10 2
0 4 -4 4 -10z m70 -5 c0 -8 -4 -15 -10 -15 -5 0 -10 7 -10 15 0 8 5 15 10 15
6 0 10 -7 10 -15z m-1265 -5 c3 -5 1 -10 -4 -10 -6 0 -11 5 -11 10 0 6 2 10 4
10 3 0 8 -4 11 -10z m623 -2 c15 -15 15 -30 -1 -52 -11 -15 -17 -16 -40 -5
-30 13 -32 21 -17 50 12 21 40 25 58 7z m-658 -53 c0 -8 -6 -15 -14 -15 -17 0
-28 14 -19 24 12 12 33 6 33 -9z m2050 5 c0 -5 -4 -10 -10 -10 -5 0 -10 5 -10
10 0 6 5 10 10 10 6 0 10 -4 10 -10z m-4523 -26 c-3 -3 -12 -4 -19 -1 -8 3 -5
6 6 6 11 1 17 -2 13 -5z m1313 -35 c0 -5 -7 -9 -15 -9 -15 0 -20 12 -9 23 8 8
24 -1 24 -14z m1440 11 c0 -5 -4 -10 -10 -10 -5 0 -10 5 -10 10 0 6 5 10 10
10 6 0 10 -4 10 -10z m-1715 -10 c-7 -11 -55 -9 -55 2 0 4 14 8 31 8 17 0 28
-4 24 -10z m1485 0 c0 -5 -7 -10 -15 -10 -8 0 -15 5 -15 10 0 6 7 10 15 10 8
0 15 -4 15 -10z m-710 -10 c0 -5 -4 -10 -9 -10 -6 0 -13 5 -16 10 -3 6 1 10 9
10 9 0 16 -4 16 -10z m-43 -6 c-3 -3 -12 -4 -19 -1 -8 3 -5 6 6 6 11 1 17 -2
13 -5z m-417 -8 c0 -3 -4 -8 -10 -11 -5 -3 -10 -1 -10 4 0 6 5 11 10 11 6 0
10 -2 10 -4z m3444 -21 c3 -8 1 -15 -4 -15 -6 0 -10 7 -10 15 0 8 2 15 4 15 2
0 6 -7 10 -15z m-4007 -1 c-3 -3 -12 -4 -19 -1 -8 3 -5 6 6 6 11 1 17 -2 13
-5z m1863 -20 c0 -8 -5 -12 -10 -9 -6 4 -8 11 -5 16 9 14 15 11 15 -7z m570 6
c0 -5 -6 -10 -14 -10 -8 0 -18 5 -21 10 -3 6 3 10 14 10 12 0 21 -4 21 -10z
m-700 -10 c0 -5 -4 -10 -10 -10 -5 0 -10 5 -10 10 0 6 5 10 10 10 6 0 10 -4
10 -10z m1880 0 c0 -5 -4 -10 -10 -10 -5 0 -10 5 -10 10 0 6 5 10 10 10 6 0
10 -4 10 -10z m130 0 c0 -12 -17 -12 -45 0 -17 7 -15 9 13 9 17 1 32 -3 32 -9z
m45 -10 c-3 -5 -10 -10 -16 -10 -5 0 -9 5 -9 10 0 6 7 10 16 10 8 0 12 -4 9
-10z m179 -25 c5 -22 4 -26 -4 -15 -5 8 -10 24 -10 34 0 26 6 18 14 -19z
m-2689 5 c3 -5 -1 -10 -10 -10 -9 0 -13 5 -10 10 3 6 8 10 10 10 2 0 7 -4 10
-10z m365 6 c0 -11 -19 -15 -25 -6 -3 5 1 10 9 10 9 0 16 -2 16 -4z m95 -14
c-3 -3 -11 0 -18 7 -9 10 -8 11 6 5 10 -3 15 -9 12 -12z m205 2 c0 -2 -7 -4
-15 -4 -8 0 -15 4 -15 10 0 5 7 7 15 4 8 -4 15 -8 15 -10z m80 6 c0 -5 -5 -10
-11 -10 -5 0 -7 5 -4 10 3 6 8 10 11 10 2 0 4 -4 4 -10z m-140 -4 c0 -2 -7 -9
-15 -16 -12 -10 -15 -10 -15 4 0 9 7 16 15 16 8 0 15 -2 15 -4z m283 -21 c20
-4 37 -11 37 -15 0 -14 -39 -18 -50 -5 -6 7 -29 11 -60 9 -46 -2 -59 3 -44 19
7 7 61 3 117 -8z m-2143 -5 c0 -5 -4 -10 -10 -10 -5 0 -10 5 -10 10 0 6 5 10
10 10 6 0 10 -4 10 -10z m1934 -21 c-3 -5 -10 -7 -15 -3 -5 3 -7 10 -3 15 3 5
10 7 15 3 5 -3 7 -10 3 -15z m56 11 c0 -5 -4 -10 -10 -10 -5 0 -10 5 -10 10 0
6 5 10 10 10 6 0 10 -4 10 -10z"/>
<path d="M1748 3863 c6 -2 18 -2 25 0 6 3 1 5 -13 5 -14 0 -19 -2 -12 -5z"/>
<path d="M2379 2361 c-33 -8 -81 -49 -96 -84 -19 -42 -16 -53 10 -29 12 11 44
31 71 43 57 25 139 23 199 -6 34 -16 48 -34 30 -36 -5 0 -20 -3 -35 -5 -16 -3
-28 -1 -28 3 0 4 -22 9 -49 11 -34 2 -52 -2 -61 -13 -9 -11 -16 -12 -25 -5
-20 17 -61 -5 -69 -35 -4 -15 -4 -36 0 -48 4 -15 3 -19 -4 -12 -6 6 -12 23
-14 39 -2 16 -9 31 -16 34 -9 3 -11 -3 -6 -22 3 -14 7 -37 8 -50 0 -13 5 -22
10 -19 4 3 5 -4 2 -15 -5 -15 1 -26 27 -46 35 -27 53 -34 42 -16 -3 6 1 7 9 4
11 -4 13 -11 6 -23 -6 -12 -5 -22 2 -29 21 -21 -8 -36 -78 -40 -95 -6 -59 -22
51 -22 80 0 241 -22 254 -35 6 -7 -7 -6 -91 4 -170 22 -180 22 -172 10 5 -8 2
-10 -8 -6 -9 3 -21 0 -28 -6 -9 -9 -11 -9 -7 -1 8 15 -42 29 -55 16 -10 -10
20 -32 101 -74 42 -21 69 -28 113 -28 60 0 124 23 113 40 -6 10 74 50 101 50
41 0 -6 20 -71 30 -66 11 -105 33 -105 60 0 5 -4 10 -10 10 -5 0 -10 4 -10 9
0 5 17 11 38 15 21 3 47 15 57 26 10 11 24 20 30 20 17 0 40 37 52 86 20 79
-34 162 -117 184 -47 12 -139 18 -171 11z m59 -339 c2 -7 -2 -10 -12 -6 -9 3
-16 11 -16 16 0 13 23 5 28 -10z m36 -7 c-6 -16 -24 -21 -24 -7 0 11 11 22 21
22 5 0 6 -7 3 -15z"/>
<path d="M2855 2080 c-4 -6 3 -10 14 -10 25 0 27 6 6 13 -8 4 -17 2 -20 -3z"/>
<path d="M3310 1809 c0 -5 5 -7 10 -4 6 3 10 8 10 11 0 2 -4 4 -10 4 -5 0 -10
-5 -10 -11z"/>
<path d="M2977 1443 c-4 -3 -7 -16 -6 -27 0 -19 1 -19 10 3 10 24 8 36 -4 24z"/>
<path d="M4060 3750 c0 -5 5 -10 11 -10 5 0 7 5 4 10 -3 6 -8 10 -11 10 -2 0
-4 -4 -4 -10z"/>
<path d="M4210 3729 c0 -5 5 -7 10 -4 6 3 10 8 10 11 0 2 -4 4 -10 4 -5 0 -10
-5 -10 -11z"/>
</g>
</svg>
